<?xml version="1.0" encoding="UTF-8" standalone="no"?>
<!DOCTYPE svg PUBLIC "-//W3C//DTD SVG 1.1//EN"
 "http://www.w3.org/Graphics/SVG/1.1/DTD/svg11.dtd">
<!-- Generated by graphviz version 2.40.1 (20161225.0304)
 -->
<!-- Title: %3 Pages: 1 -->
<svg width="692pt" height="44pt"
 viewBox="0.00 0.00 692.00 44.00" xmlns="http://www.w3.org/2000/svg" xmlns:xlink="http://www.w3.org/1999/xlink">
<g id="graph0" class="graph" transform="scale(1 1) rotate(0) translate(4 40)">
<title>%3</title>
<polygon fill="#ffffff" stroke="transparent" points="-4,4 -4,-40 688,-40 688,4 -4,4"/>
<!-- n0_0 -->
<g id="node1" class="node">
<title>n0_0</title>
<ellipse fill="#ffffff" stroke="#000000" cx="18" cy="-18" rx="18" ry="18"/>
</g>
<!-- n0_1 -->
<g id="node2" class="node">
<title>n0_1</title>
<ellipse fill="#ffffff" stroke="#000000" cx="90" cy="-18" rx="18" ry="18"/>
</g>
<!-- n0_0&#45;&#45;n0_1 -->
<g id="edge1" class="edge">
<title>n0_0&#45;&#45;n0_1</title>
<path fill="none" stroke="#000000" d="M36.1686,-18C47,-18 60.7124,-18 71.5867,-18"/>
</g>
<!-- n0_2 -->
<g id="node3" class="node">
<title>n0_2</title>
<ellipse fill="#ffffff" stroke="#000000" cx="162" cy="-18" rx="18" ry="18"/>
</g>
<!-- n0_1&#45;&#45;n0_2 -->
<g id="edge2" class="edge">
<title>n0_1&#45;&#45;n0_2</title>
<path fill="none" stroke="#000000" d="M108.1686,-18C119,-18 132.7124,-18 143.5867,-18"/>
</g>
<!-- n0_3 -->
<g id="node4" class="node">
<title>n0_3</title>
<ellipse fill="#ffffff" stroke="#000000" cx="234" cy="-18" rx="18" ry="18"/>
</g>
<!-- n0_2&#45;&#45;n0_3 -->
<g id="edge3" class="edge">
<title>n0_2&#45;&#45;n0_3</title>
<path fill="none" stroke="#000000" d="M180.1686,-18C191,-18 204.7124,-18 215.5867,-18"/>
</g>
<!-- n0_4 -->
<g id="node5" class="node">
<title>n0_4</title>
<ellipse fill="#ffffff" stroke="#000000" cx="306" cy="-18" rx="18" ry="18"/>
</g>
<!-- n0_3&#45;&#45;n0_4 -->
<g id="edge4" class="edge">
<title>n0_3&#45;&#45;n0_4</title>
<path fill="none" stroke="#000000" d="M252.1686,-18C263,-18 276.7124,-18 287.5867,-18"/>
</g>
<!-- n0_5 -->
<g id="node6" class="node">
<title>n0_5</title>
<ellipse fill="#ffffff" stroke="#000000" cx="378" cy="-18" rx="18" ry="18"/>
</g>
<!-- n0_4&#45;&#45;n0_5 -->
<g id="edge5" class="edge">
<title>n0_4&#45;&#45;n0_5</title>
<path fill="none" stroke="#000000" d="M324.1686,-18C335,-18 348.7124,-18 359.5867,-18"/>
</g>
<!-- n0_6 -->
<g id="node7" class="node">
<title>n0_6</title>
<ellipse fill="#ffffff" stroke="#000000" cx="450" cy="-18" rx="18" ry="18"/>
</g>
<!-- n0_5&#45;&#45;n0_6 -->
<g id="edge6" class="edge">
<title>n0_5&#45;&#45;n0_6</title>
<path fill="none" stroke="#000000" d="M396.1686,-18C407,-18 420.7124,-18 431.5867,-18"/>
</g>
<!-- n0_7 -->
<g id="node8" class="node">
<title>n0_7</title>
<ellipse fill="#ffffff" stroke="#000000" cx="522" cy="-18" rx="18" ry="18"/>
</g>
<!-- n0_6&#45;&#45;n0_7 -->
<g id="edge7" class="edge">
<title>n0_6&#45;&#45;n0_7</title>
<path fill="none" stroke="#000000" d="M468.1686,-18C479,-18 492.7124,-18 503.5867,-18"/>
</g>
<!-- n0_8 -->
<g id="node9" class="node">
<title>n0_8</title>
<ellipse fill="#ffffff" stroke="#000000" cx="594" cy="-18" rx="18" ry="18"/>
</g>
<!-- n0_7&#45;&#45;n0_8 -->
<g id="edge8" class="edge">
<title>n0_7&#45;&#45;n0_8</title>
<path fill="none" stroke="#000000" d="M540.1686,-18C551,-18 564.7124,-18 575.5867,-18"/>
</g>
<!-- n0_9 -->
<g id="node10" class="node">
<title>n0_9</title>
<ellipse fill="#ffffff" stroke="#000000" cx="666" cy="-18" rx="18" ry="18"/>
</g>
<!-- n0_8&#45;&#45;n0_9 -->
<g id="edge9" class="edge">
<title>n0_8&#45;&#45;n0_9</title>
<path fill="none" stroke="#000000" d="M612.1686,-18C623,-18 636.7124,-18 647.5867,-18"/>
</g>
</g>
</svg>
