<?xml version="1.0" encoding="UTF-8" standalone="no"?>
<!DOCTYPE svg PUBLIC "-//W3C//DTD SVG 1.1//EN"
 "http://www.w3.org/Graphics/SVG/1.1/DTD/svg11.dtd">
<!-- Generated by graphviz version 2.40.1 (20161225.0304)
 -->
<!-- Title: %3 Pages: 1 -->
<svg width="287pt" height="260pt"
 viewBox="0.00 0.00 287.00 260.00" xmlns="http://www.w3.org/2000/svg" xmlns:xlink="http://www.w3.org/1999/xlink">
<g id="graph0" class="graph" transform="scale(1 1) rotate(0) translate(4 256)">
<title>%3</title>
<polygon fill="#ffffff" stroke="transparent" points="-4,4 -4,-256 283,-256 283,4 -4,4"/>
<!-- n0_0 -->
<g id="node1" class="node">
<title>n0_0</title>
<ellipse fill="#ffffff" stroke="#000000" cx="180" cy="-234" rx="18" ry="18"/>
</g>
<!-- n0_1 -->
<g id="node2" class="node">
<title>n0_1</title>
<ellipse fill="#ffffff" stroke="#000000" cx="72" cy="-162" rx="18" ry="18"/>
</g>
<!-- n0_0&#45;&#45;n0_1 -->
<g id="edge1" class="edge">
<title>n0_0&#45;&#45;n0_1</title>
<path fill="none" stroke="#000000" d="M164.9831,-223.9887C144.4653,-210.3102 107.8699,-185.9132 87.2376,-172.1584"/>
</g>
<!-- n0_3 -->
<g id="node4" class="node">
<title>n0_3</title>
<ellipse fill="#ffffff" stroke="#000000" cx="153" cy="-162" rx="18" ry="18"/>
</g>
<!-- n0_0&#45;&#45;n0_3 -->
<g id="edge2" class="edge">
<title>n0_0&#45;&#45;n0_3</title>
<path fill="none" stroke="#000000" d="M173.6014,-216.937C169.2974,-205.4596 163.6471,-190.3922 159.3527,-178.9405"/>
</g>
<!-- n0_6 -->
<g id="node7" class="node">
<title>n0_6</title>
<ellipse fill="#ffffff" stroke="#000000" cx="207" cy="-162" rx="18" ry="18"/>
</g>
<!-- n0_0&#45;&#45;n0_6 -->
<g id="edge3" class="edge">
<title>n0_0&#45;&#45;n0_6</title>
<path fill="none" stroke="#000000" d="M186.3986,-216.937C190.7026,-205.4596 196.3529,-190.3922 200.6473,-178.9405"/>
</g>
<!-- n0_7 -->
<g id="node8" class="node">
<title>n0_7</title>
<ellipse fill="#ffffff" stroke="#000000" cx="261" cy="-162" rx="18" ry="18"/>
</g>
<!-- n0_0&#45;&#45;n0_7 -->
<g id="edge4" class="edge">
<title>n0_0&#45;&#45;n0_7</title>
<path fill="none" stroke="#000000" d="M193.7405,-221.7862C208.7257,-208.466 232.5577,-187.2821 247.4624,-174.0334"/>
</g>
<!-- n0_2 -->
<g id="node3" class="node">
<title>n0_2</title>
<ellipse fill="#ffffff" stroke="#000000" cx="18" cy="-90" rx="18" ry="18"/>
</g>
<!-- n0_1&#45;&#45;n0_2 -->
<g id="edge5" class="edge">
<title>n0_1&#45;&#45;n0_2</title>
<path fill="none" stroke="#000000" d="M61.0723,-147.4297C51.7035,-134.938 38.2755,-117.034 28.9115,-104.5486"/>
</g>
<!-- n0_4 -->
<g id="node5" class="node">
<title>n0_4</title>
<ellipse fill="#ffffff" stroke="#000000" cx="72" cy="-90" rx="18" ry="18"/>
</g>
<!-- n0_1&#45;&#45;n0_4 -->
<g id="edge6" class="edge">
<title>n0_1&#45;&#45;n0_4</title>
<path fill="none" stroke="#000000" d="M72,-143.8314C72,-133 72,-119.2876 72,-108.4133"/>
</g>
<!-- n0_10 -->
<g id="node11" class="node">
<title>n0_10</title>
<ellipse fill="#ffffff" stroke="#000000" cx="18" cy="-18" rx="18" ry="18"/>
</g>
<!-- n0_2&#45;&#45;n0_10 -->
<g id="edge7" class="edge">
<title>n0_2&#45;&#45;n0_10</title>
<path fill="none" stroke="#000000" d="M18,-71.8314C18,-61 18,-47.2876 18,-36.4133"/>
</g>
<!-- n0_5 -->
<g id="node6" class="node">
<title>n0_5</title>
<ellipse fill="#ffffff" stroke="#000000" cx="126" cy="-90" rx="18" ry="18"/>
</g>
<!-- n0_3&#45;&#45;n0_5 -->
<g id="edge9" class="edge">
<title>n0_3&#45;&#45;n0_5</title>
<path fill="none" stroke="#000000" d="M146.6014,-144.937C142.2974,-133.4596 136.6471,-118.3922 132.3527,-106.9405"/>
</g>
<!-- n0_8 -->
<g id="node9" class="node">
<title>n0_8</title>
<ellipse fill="#ffffff" stroke="#000000" cx="180" cy="-90" rx="18" ry="18"/>
</g>
<!-- n0_3&#45;&#45;n0_8 -->
<g id="edge8" class="edge">
<title>n0_3&#45;&#45;n0_8</title>
<path fill="none" stroke="#000000" d="M159.3986,-144.937C163.7026,-133.4596 169.3529,-118.3922 173.6473,-106.9405"/>
</g>
<!-- n0_9 -->
<g id="node10" class="node">
<title>n0_9</title>
<ellipse fill="#ffffff" stroke="#000000" cx="234" cy="-90" rx="18" ry="18"/>
</g>
<!-- n0_3&#45;&#45;n0_9 -->
<g id="edge10" class="edge">
<title>n0_3&#45;&#45;n0_9</title>
<path fill="none" stroke="#000000" d="M166.7405,-149.7862C181.7257,-136.466 205.5577,-115.2821 220.4624,-102.0334"/>
</g>
<!-- n0_11 -->
<g id="node12" class="node">
<title>n0_11</title>
<ellipse fill="#ffffff" stroke="#000000" cx="72" cy="-18" rx="18" ry="18"/>
</g>
<!-- n0_4&#45;&#45;n0_11 -->
<g id="edge11" class="edge">
<title>n0_4&#45;&#45;n0_11</title>
<path fill="none" stroke="#000000" d="M72,-71.8314C72,-61 72,-47.2876 72,-36.4133"/>
</g>
</g>
</svg>
