<?xml version="1.0" encoding="UTF-8" standalone="no"?>
<!DOCTYPE svg PUBLIC "-//W3C//DTD SVG 1.1//EN"
 "http://www.w3.org/Graphics/SVG/1.1/DTD/svg11.dtd">
<!-- Generated by graphviz version 2.40.1 (20161225.0304)
 -->
<!-- Title: %3 Pages: 1 -->
<svg width="892pt" height="170pt"
 viewBox="0.00 0.00 892.00 170.00" xmlns="http://www.w3.org/2000/svg" xmlns:xlink="http://www.w3.org/1999/xlink">
<g id="graph0" class="graph" transform="scale(1 1) rotate(0) translate(4 166)">
<title>%3</title>
<polygon fill="#ffffff" stroke="transparent" points="-4,4 -4,-166 888,-166 888,4 -4,4"/>
<g id="clust1" class="cluster">
<title>cluster_0</title>
<polygon fill="none" stroke="#000000" points="8,-8 8,-154 438,-154 438,-8 8,-8"/>
<text text-anchor="middle" x="223" y="-138.8" font-family="Times,serif" font-size="14.00" fill="#000000">1st shot</text>
</g>
<g id="clust2" class="cluster">
<title>cluster_1</title>
<polygon fill="none" stroke="#000000" points="446,-8 446,-154 876,-154 876,-8 446,-8"/>
<text text-anchor="middle" x="661" y="-138.8" font-family="Times,serif" font-size="14.00" fill="#000000">2nd shot</text>
</g>
<!-- n0_0 -->
<g id="node1" class="node">
<title>n0_0</title>
<ellipse fill="#ff0000" stroke="#000000" cx="223" cy="-106" rx="18" ry="18"/>
</g>
<!-- n0_1 -->
<g id="node2" class="node">
<title>n0_1</title>
<ellipse fill="#ffffff" stroke="#000000" cx="34" cy="-34" rx="18" ry="18"/>
</g>
<!-- n0_0&#45;&#45;n0_1 -->
<g id="edge1" class="edge">
<title>n0_0&#45;&#45;n0_1</title>
<path fill="none" stroke="#000000" d="M205.3796,-101.7771C174.9662,-94.1314 111.0677,-76.4873 61,-52 56.8501,-49.9704 52.5886,-47.3942 48.7126,-44.8298"/>
</g>
<!-- n0_2 -->
<g id="node3" class="node">
<title>n0_2</title>
<ellipse fill="#ffffff" stroke="#000000" cx="88" cy="-34" rx="18" ry="18"/>
</g>
<!-- n0_0&#45;&#45;n0_2 -->
<g id="edge2" class="edge">
<title>n0_0&#45;&#45;n0_2</title>
<path fill="none" stroke="#000000" d="M206.5668,-98.5634C185.104,-88.6754 146.5483,-70.3082 115,-52 111.0045,-49.6813 106.7983,-47.0012 102.9265,-44.4291"/>
</g>
<!-- n0_3 -->
<g id="node4" class="node">
<title>n0_3</title>
<ellipse fill="#ffffff" stroke="#000000" cx="142" cy="-34" rx="18" ry="18"/>
</g>
<!-- n0_0&#45;&#45;n0_3 -->
<g id="edge3" class="edge">
<title>n0_0&#45;&#45;n0_3</title>
<path fill="none" stroke="#000000" d="M209.2595,-93.7862C194.2743,-80.466 170.4423,-59.2821 155.5376,-46.0334"/>
</g>
<!-- n0_4 -->
<g id="node5" class="node">
<title>n0_4</title>
<ellipse fill="#ffffff" stroke="#000000" cx="196" cy="-34" rx="18" ry="18"/>
</g>
<!-- n0_0&#45;&#45;n0_4 -->
<g id="edge4" class="edge">
<title>n0_0&#45;&#45;n0_4</title>
<path fill="none" stroke="#000000" d="M216.6014,-88.937C212.2974,-77.4596 206.6471,-62.3922 202.3527,-50.9405"/>
</g>
<!-- n0_5 -->
<g id="node6" class="node">
<title>n0_5</title>
<ellipse fill="#ffffff" stroke="#000000" cx="250" cy="-34" rx="18" ry="18"/>
</g>
<!-- n0_0&#45;&#45;n0_5 -->
<g id="edge5" class="edge">
<title>n0_0&#45;&#45;n0_5</title>
<path fill="none" stroke="#000000" d="M229.3986,-88.937C233.7026,-77.4596 239.3529,-62.3922 243.6473,-50.9405"/>
</g>
<!-- n0_6 -->
<g id="node7" class="node">
<title>n0_6</title>
<ellipse fill="#ffffff" stroke="#000000" cx="304" cy="-34" rx="18" ry="18"/>
</g>
<!-- n0_0&#45;&#45;n0_6 -->
<g id="edge6" class="edge">
<title>n0_0&#45;&#45;n0_6</title>
<path fill="none" stroke="#000000" d="M236.7405,-93.7862C251.7257,-80.466 275.5577,-59.2821 290.4624,-46.0334"/>
</g>
<!-- n0_7 -->
<g id="node8" class="node">
<title>n0_7</title>
<ellipse fill="#ffffff" stroke="#000000" cx="358" cy="-34" rx="18" ry="18"/>
</g>
<!-- n0_0&#45;&#45;n0_7 -->
<g id="edge7" class="edge">
<title>n0_0&#45;&#45;n0_7</title>
<path fill="none" stroke="#000000" d="M239.4332,-98.5634C260.896,-88.6754 299.4517,-70.3082 331,-52 334.9955,-49.6813 339.2017,-47.0012 343.0735,-44.4291"/>
</g>
<!-- n0_8 -->
<g id="node9" class="node">
<title>n0_8</title>
<ellipse fill="#ffffff" stroke="#000000" cx="412" cy="-34" rx="18" ry="18"/>
</g>
<!-- n0_0&#45;&#45;n0_8 -->
<g id="edge8" class="edge">
<title>n0_0&#45;&#45;n0_8</title>
<path fill="none" stroke="#000000" d="M240.6204,-101.7771C271.0338,-94.1314 334.9323,-76.4873 385,-52 389.1499,-49.9704 393.4114,-47.3942 397.2874,-44.8298"/>
</g>
<!-- n1_0 -->
<g id="node10" class="node">
<title>n1_0</title>
<ellipse fill="#ff0000" stroke="#000000" cx="661" cy="-106" rx="18" ry="18"/>
</g>
<!-- n1_1 -->
<g id="node11" class="node">
<title>n1_1</title>
<ellipse fill="#c0c0c0" stroke="#000000" cx="472" cy="-34" rx="18" ry="18"/>
</g>
<!-- n1_0&#45;&#45;n1_1 -->
<g id="edge9" class="edge">
<title>n1_0&#45;&#45;n1_1</title>
<path fill="none" stroke="#000000" d="M643.3796,-101.7771C612.9662,-94.1314 549.0677,-76.4873 499,-52 494.8501,-49.9704 490.5886,-47.3942 486.7126,-44.8298"/>
</g>
<!-- n1_2 -->
<g id="node12" class="node">
<title>n1_2</title>
<ellipse fill="#c0c0c0" stroke="#000000" cx="526" cy="-34" rx="18" ry="18"/>
</g>
<!-- n1_0&#45;&#45;n1_2 -->
<g id="edge10" class="edge">
<title>n1_0&#45;&#45;n1_2</title>
<path fill="none" stroke="#000000" d="M644.5668,-98.5634C623.104,-88.6754 584.5483,-70.3082 553,-52 549.0045,-49.6813 544.7983,-47.0012 540.9265,-44.4291"/>
</g>
<!-- n1_3 -->
<g id="node13" class="node">
<title>n1_3</title>
<ellipse fill="#c0c0c0" stroke="#000000" cx="580" cy="-34" rx="18" ry="18"/>
</g>
<!-- n1_0&#45;&#45;n1_3 -->
<g id="edge11" class="edge">
<title>n1_0&#45;&#45;n1_3</title>
<path fill="none" stroke="#000000" d="M647.2595,-93.7862C632.2743,-80.466 608.4423,-59.2821 593.5376,-46.0334"/>
</g>
<!-- n1_4 -->
<g id="node14" class="node">
<title>n1_4</title>
<ellipse fill="#c0c0c0" stroke="#000000" cx="634" cy="-34" rx="18" ry="18"/>
</g>
<!-- n1_0&#45;&#45;n1_4 -->
<g id="edge12" class="edge">
<title>n1_0&#45;&#45;n1_4</title>
<path fill="none" stroke="#000000" d="M654.6014,-88.937C650.2974,-77.4596 644.6471,-62.3922 640.3527,-50.9405"/>
</g>
<!-- n1_5 -->
<g id="node15" class="node">
<title>n1_5</title>
<ellipse fill="#c0c0c0" stroke="#000000" cx="688" cy="-34" rx="18" ry="18"/>
</g>
<!-- n1_0&#45;&#45;n1_5 -->
<g id="edge13" class="edge">
<title>n1_0&#45;&#45;n1_5</title>
<path fill="none" stroke="#000000" d="M667.3986,-88.937C671.7026,-77.4596 677.3529,-62.3922 681.6473,-50.9405"/>
</g>
<!-- n1_6 -->
<g id="node16" class="node">
<title>n1_6</title>
<ellipse fill="#c0c0c0" stroke="#000000" cx="742" cy="-34" rx="18" ry="18"/>
</g>
<!-- n1_0&#45;&#45;n1_6 -->
<g id="edge14" class="edge">
<title>n1_0&#45;&#45;n1_6</title>
<path fill="none" stroke="#000000" d="M674.7405,-93.7862C689.7257,-80.466 713.5577,-59.2821 728.4624,-46.0334"/>
</g>
<!-- n1_7 -->
<g id="node17" class="node">
<title>n1_7</title>
<ellipse fill="#c0c0c0" stroke="#000000" cx="796" cy="-34" rx="18" ry="18"/>
</g>
<!-- n1_0&#45;&#45;n1_7 -->
<g id="edge15" class="edge">
<title>n1_0&#45;&#45;n1_7</title>
<path fill="none" stroke="#000000" d="M677.4332,-98.5634C698.896,-88.6754 737.4517,-70.3082 769,-52 772.9955,-49.6813 777.2017,-47.0012 781.0735,-44.4291"/>
</g>
<!-- n1_8 -->
<g id="node18" class="node">
<title>n1_8</title>
<ellipse fill="#c0c0c0" stroke="#000000" cx="850" cy="-34" rx="18" ry="18"/>
</g>
<!-- n1_0&#45;&#45;n1_8 -->
<g id="edge16" class="edge">
<title>n1_0&#45;&#45;n1_8</title>
<path fill="none" stroke="#000000" d="M678.6204,-101.7771C709.0338,-94.1314 772.9323,-76.4873 823,-52 827.1499,-49.9704 831.4114,-47.3942 835.2874,-44.8298"/>
</g>
</g>
</svg>
