<?xml version="1.0" encoding="UTF-8" standalone="no"?>
<!DOCTYPE svg PUBLIC "-//W3C//DTD SVG 1.1//EN"
 "http://www.w3.org/Graphics/SVG/1.1/DTD/svg11.dtd">
<!-- Generated by graphviz version 2.40.1 (20161225.0304)
 -->
<!-- Title: %3 Pages: 1 -->
<svg width="422pt" height="116pt"
 viewBox="0.00 0.00 422.00 116.00" xmlns="http://www.w3.org/2000/svg" xmlns:xlink="http://www.w3.org/1999/xlink">
<g id="graph0" class="graph" transform="scale(1 1) rotate(0) translate(4 112)">
<title>%3</title>
<polygon fill="#ffffff" stroke="transparent" points="-4,4 -4,-112 418,-112 418,4 -4,4"/>
<!-- n0_0 -->
<g id="node1" class="node">
<title>n0_0</title>
<ellipse fill="#ffffff" stroke="#000000" cx="207" cy="-90" rx="18" ry="18"/>
</g>
<!-- n0_1 -->
<g id="node2" class="node">
<title>n0_1</title>
<ellipse fill="#ffffff" stroke="#000000" cx="18" cy="-18" rx="18" ry="18"/>
</g>
<!-- n0_0&#45;&#45;n0_1 -->
<g id="edge1" class="edge">
<title>n0_0&#45;&#45;n0_1</title>
<path fill="none" stroke="#000000" d="M189.3796,-85.7771C158.9662,-78.1314 95.0677,-60.4873 45,-36 40.8501,-33.9704 36.5886,-31.3942 32.7126,-28.8298"/>
</g>
<!-- n0_2 -->
<g id="node3" class="node">
<title>n0_2</title>
<ellipse fill="#ffffff" stroke="#000000" cx="72" cy="-18" rx="18" ry="18"/>
</g>
<!-- n0_0&#45;&#45;n0_2 -->
<g id="edge2" class="edge">
<title>n0_0&#45;&#45;n0_2</title>
<path fill="none" stroke="#000000" d="M190.5668,-82.5634C169.104,-72.6754 130.5483,-54.3082 99,-36 95.0045,-33.6813 90.7983,-31.0012 86.9265,-28.4291"/>
</g>
<!-- n0_3 -->
<g id="node4" class="node">
<title>n0_3</title>
<ellipse fill="#ffffff" stroke="#000000" cx="126" cy="-18" rx="18" ry="18"/>
</g>
<!-- n0_0&#45;&#45;n0_3 -->
<g id="edge3" class="edge">
<title>n0_0&#45;&#45;n0_3</title>
<path fill="none" stroke="#000000" d="M193.2595,-77.7862C178.2743,-64.466 154.4423,-43.2821 139.5376,-30.0334"/>
</g>
<!-- n0_4 -->
<g id="node5" class="node">
<title>n0_4</title>
<ellipse fill="#ffffff" stroke="#000000" cx="180" cy="-18" rx="18" ry="18"/>
</g>
<!-- n0_0&#45;&#45;n0_4 -->
<g id="edge4" class="edge">
<title>n0_0&#45;&#45;n0_4</title>
<path fill="none" stroke="#000000" d="M200.6014,-72.937C196.2974,-61.4596 190.6471,-46.3922 186.3527,-34.9405"/>
</g>
<!-- n0_5 -->
<g id="node6" class="node">
<title>n0_5</title>
<ellipse fill="#ffffff" stroke="#000000" cx="234" cy="-18" rx="18" ry="18"/>
</g>
<!-- n0_0&#45;&#45;n0_5 -->
<g id="edge5" class="edge">
<title>n0_0&#45;&#45;n0_5</title>
<path fill="none" stroke="#000000" d="M213.3986,-72.937C217.7026,-61.4596 223.3529,-46.3922 227.6473,-34.9405"/>
</g>
<!-- n0_6 -->
<g id="node7" class="node">
<title>n0_6</title>
<ellipse fill="#ffffff" stroke="#000000" cx="288" cy="-18" rx="18" ry="18"/>
</g>
<!-- n0_0&#45;&#45;n0_6 -->
<g id="edge6" class="edge">
<title>n0_0&#45;&#45;n0_6</title>
<path fill="none" stroke="#000000" d="M220.7405,-77.7862C235.7257,-64.466 259.5577,-43.2821 274.4624,-30.0334"/>
</g>
<!-- n0_7 -->
<g id="node8" class="node">
<title>n0_7</title>
<ellipse fill="#ffffff" stroke="#000000" cx="342" cy="-18" rx="18" ry="18"/>
</g>
<!-- n0_0&#45;&#45;n0_7 -->
<g id="edge7" class="edge">
<title>n0_0&#45;&#45;n0_7</title>
<path fill="none" stroke="#000000" d="M223.4332,-82.5634C244.896,-72.6754 283.4517,-54.3082 315,-36 318.9955,-33.6813 323.2017,-31.0012 327.0735,-28.4291"/>
</g>
<!-- n0_8 -->
<g id="node9" class="node">
<title>n0_8</title>
<ellipse fill="#ffffff" stroke="#000000" cx="396" cy="-18" rx="18" ry="18"/>
</g>
<!-- n0_0&#45;&#45;n0_8 -->
<g id="edge8" class="edge">
<title>n0_0&#45;&#45;n0_8</title>
<path fill="none" stroke="#000000" d="M224.6204,-85.7771C255.0338,-78.1314 318.9323,-60.4873 369,-36 373.1499,-33.9704 377.4114,-31.3942 381.2874,-28.8298"/>
</g>
</g>
</svg>
