<?xml version="1.0" encoding="UTF-8" standalone="no"?>
<!DOCTYPE svg PUBLIC "-//W3C//DTD SVG 1.1//EN"
 "http://www.w3.org/Graphics/SVG/1.1/DTD/svg11.dtd">
<!-- Generated by graphviz version 2.40.1 (20161225.0304)
 -->
<!-- Title: %3 Pages: 1 -->
<svg width="768pt" height="830pt"
 viewBox="0.00 0.00 767.82 829.75" xmlns="http://www.w3.org/2000/svg" xmlns:xlink="http://www.w3.org/1999/xlink">
<g id="graph0" class="graph" transform="scale(1 1) rotate(0) translate(4 825.7474)">
<title>%3</title>
<polygon fill="#ffffff" stroke="transparent" points="-4,4 -4,-825.7474 763.8234,-825.7474 763.8234,4 -4,4"/>
<!-- n2_0 -->
<g id="node1" class="node">
<title>n2_0</title>
<ellipse fill="#c0c0c0" stroke="#000000" cx="353.1908" cy="-61.1841" rx="18" ry="18"/>
</g>
<!-- n2_1 -->
<g id="node2" class="node">
<title>n2_1</title>
<ellipse fill="#ffffff" stroke="#000000" cx="291.8731" cy="-105.2965" rx="18" ry="18"/>
</g>
<!-- n2_0&#45;&#45;n2_1 -->
<g id="edge1" class="edge">
<title>n2_0&#45;&#45;n2_1</title>
<path fill="none" stroke="#000000" d="M338.3475,-71.8624C328.7069,-78.798 316.1931,-87.8005 306.5798,-94.7165"/>
</g>
<!-- n2_9 -->
<g id="node10" class="node">
<title>n2_9</title>
<ellipse fill="#ffffff" stroke="#000000" cx="412.8234" cy="-18" rx="18" ry="18"/>
</g>
<!-- n2_0&#45;&#45;n2_9 -->
<g id="edge2" class="edge">
<title>n2_0&#45;&#45;n2_9</title>
<path fill="none" stroke="#000000" d="M367.9315,-50.5093C377.0368,-43.9155 388.6877,-35.4783 397.8381,-28.8519"/>
</g>
<!-- n2_2 -->
<g id="node3" class="node">
<title>n2_2</title>
<ellipse fill="#ff0000" stroke="#000000" cx="226.3763" cy="-152.4289" rx="18" ry="18"/>
</g>
<!-- n2_1&#45;&#45;n2_2 -->
<g id="edge3" class="edge">
<title>n2_1&#45;&#45;n2_2</title>
<path fill="none" stroke="#000000" d="M277.0109,-115.9916C266.2919,-123.7051 251.8851,-134.0724 241.1797,-141.7761"/>
</g>
<!-- n2_3 -->
<g id="node4" class="node">
<title>n2_3</title>
<ellipse fill="#ffffff" stroke="#000000" cx="234.3817" cy="-232.7158" rx="18" ry="18"/>
</g>
<!-- n2_2&#45;&#45;n2_3 -->
<g id="edge4" class="edge">
<title>n2_2&#45;&#45;n2_3</title>
<path fill="none" stroke="#000000" d="M228.1928,-170.6472C229.503,-183.7867 231.2639,-201.4467 232.5723,-214.5695"/>
</g>
<!-- n2_5 -->
<g id="node6" class="node">
<title>n2_5</title>
<ellipse fill="#ffffff" stroke="#000000" cx="152.7887" cy="-119.3393" rx="18" ry="18"/>
</g>
<!-- n2_2&#45;&#45;n2_5 -->
<g id="edge5" class="edge">
<title>n2_2&#45;&#45;n2_5</title>
<path fill="none" stroke="#000000" d="M209.6781,-144.9203C197.6351,-139.505 181.4487,-132.2266 169.4208,-126.8181"/>
</g>
<!-- n2_4 -->
<g id="node5" class="node">
<title>n2_4</title>
<ellipse fill="#ffffff" stroke="#000000" cx="241.5034" cy="-307.9112" rx="18" ry="18"/>
</g>
<!-- n2_3&#45;&#45;n2_4 -->
<g id="edge6" class="edge">
<title>n2_3&#45;&#45;n2_4</title>
<path fill="none" stroke="#000000" d="M236.1057,-250.9185C237.2254,-262.7411 238.6788,-278.0871 239.7953,-289.8761"/>
</g>
<!-- n2_8 -->
<g id="node9" class="node">
<title>n2_8</title>
<ellipse fill="#ffffff" stroke="#000000" cx="252.3061" cy="-380.7474" rx="18" ry="18"/>
</g>
<!-- n2_4&#45;&#45;n2_8 -->
<g id="edge7" class="edge">
<title>n2_4&#45;&#45;n2_8</title>
<path fill="none" stroke="#000000" d="M244.1738,-325.9157C245.8357,-337.1214 247.9658,-351.4835 249.6291,-362.6977"/>
</g>
<!-- n2_6 -->
<g id="node7" class="node">
<title>n2_6</title>
<ellipse fill="#ffffff" stroke="#000000" cx="83.7658" cy="-88.6679" rx="18" ry="18"/>
</g>
<!-- n2_5&#45;&#45;n2_6 -->
<g id="edge8" class="edge">
<title>n2_5&#45;&#45;n2_6</title>
<path fill="none" stroke="#000000" d="M136.0802,-111.9146C125.2281,-107.0923 111.1418,-100.8328 100.3204,-96.0242"/>
</g>
<!-- n2_7 -->
<g id="node8" class="node">
<title>n2_7</title>
<ellipse fill="#ffffff" stroke="#000000" cx="18" cy="-55.5611" rx="18" ry="18"/>
</g>
<!-- n2_6&#45;&#45;n2_7 -->
<g id="edge9" class="edge">
<title>n2_6&#45;&#45;n2_7</title>
<path fill="none" stroke="#000000" d="M67.5091,-80.4842C57.4672,-75.4291 44.6181,-68.9608 34.5265,-63.8806"/>
</g>
<!-- n1_0 -->
<g id="node11" class="node">
<title>n1_0</title>
<ellipse fill="#ffffff" stroke="#000000" cx="682.1908" cy="-249.1841" rx="18" ry="18"/>
</g>
<!-- n1_1 -->
<g id="node12" class="node">
<title>n1_1</title>
<ellipse fill="#ff0000" stroke="#000000" cx="620.8731" cy="-293.2965" rx="18" ry="18"/>
</g>
<!-- n1_0&#45;&#45;n1_1 -->
<g id="edge10" class="edge">
<title>n1_0&#45;&#45;n1_1</title>
<path fill="none" stroke="#000000" d="M667.3475,-259.8624C657.7069,-266.798 645.1931,-275.8005 635.5798,-282.7165"/>
</g>
<!-- n1_9 -->
<g id="node20" class="node">
<title>n1_9</title>
<ellipse fill="#c0c0c0" stroke="#000000" cx="741.8234" cy="-206" rx="18" ry="18"/>
</g>
<!-- n1_0&#45;&#45;n1_9 -->
<g id="edge11" class="edge">
<title>n1_0&#45;&#45;n1_9</title>
<path fill="none" stroke="#000000" d="M696.9315,-238.5093C706.0368,-231.9155 717.6877,-223.4783 726.8381,-216.8519"/>
</g>
<!-- n1_2 -->
<g id="node13" class="node">
<title>n1_2</title>
<ellipse fill="#ffffff" stroke="#000000" cx="555.3763" cy="-340.4289" rx="18" ry="18"/>
</g>
<!-- n1_1&#45;&#45;n1_2 -->
<g id="edge12" class="edge">
<title>n1_1&#45;&#45;n1_2</title>
<path fill="none" stroke="#000000" d="M606.0109,-303.9916C595.2919,-311.7051 580.8851,-322.0724 570.1797,-329.7761"/>
</g>
<!-- n1_3 -->
<g id="node14" class="node">
<title>n1_3</title>
<ellipse fill="#ffffff" stroke="#000000" cx="563.3817" cy="-420.7158" rx="18" ry="18"/>
</g>
<!-- n1_2&#45;&#45;n1_3 -->
<g id="edge13" class="edge">
<title>n1_2&#45;&#45;n1_3</title>
<path fill="none" stroke="#000000" d="M557.1928,-358.6472C558.503,-371.7867 560.2639,-389.4467 561.5723,-402.5695"/>
</g>
<!-- n1_5 -->
<g id="node16" class="node">
<title>n1_5</title>
<ellipse fill="#ffffff" stroke="#000000" cx="481.7887" cy="-307.3393" rx="18" ry="18"/>
</g>
<!-- n1_2&#45;&#45;n1_5 -->
<g id="edge14" class="edge">
<title>n1_2&#45;&#45;n1_5</title>
<path fill="none" stroke="#000000" d="M538.6781,-332.9203C526.6351,-327.505 510.4487,-320.2266 498.4208,-314.8181"/>
</g>
<!-- n1_4 -->
<g id="node15" class="node">
<title>n1_4</title>
<ellipse fill="#ffffff" stroke="#000000" cx="570.5034" cy="-495.9112" rx="18" ry="18"/>
</g>
<!-- n1_3&#45;&#45;n1_4 -->
<g id="edge15" class="edge">
<title>n1_3&#45;&#45;n1_4</title>
<path fill="none" stroke="#000000" d="M565.1057,-438.9185C566.2254,-450.7411 567.6788,-466.0871 568.7953,-477.8761"/>
</g>
<!-- n1_8 -->
<g id="node19" class="node">
<title>n1_8</title>
<ellipse fill="#ffffff" stroke="#000000" cx="581.3061" cy="-568.7474" rx="18" ry="18"/>
</g>
<!-- n1_4&#45;&#45;n1_8 -->
<g id="edge16" class="edge">
<title>n1_4&#45;&#45;n1_8</title>
<path fill="none" stroke="#000000" d="M573.1738,-513.9157C574.8357,-525.1214 576.9658,-539.4835 578.6291,-550.6977"/>
</g>
<!-- n1_6 -->
<g id="node17" class="node">
<title>n1_6</title>
<ellipse fill="#ffffff" stroke="#000000" cx="412.7658" cy="-276.6679" rx="18" ry="18"/>
</g>
<!-- n1_5&#45;&#45;n1_6 -->
<g id="edge17" class="edge">
<title>n1_5&#45;&#45;n1_6</title>
<path fill="none" stroke="#000000" d="M465.0802,-299.9146C454.2281,-295.0923 440.1418,-288.8328 429.3204,-284.0242"/>
</g>
<!-- n1_7 -->
<g id="node18" class="node">
<title>n1_7</title>
<ellipse fill="#ffffff" stroke="#000000" cx="347" cy="-243.5611" rx="18" ry="18"/>
</g>
<!-- n1_6&#45;&#45;n1_7 -->
<g id="edge18" class="edge">
<title>n1_6&#45;&#45;n1_7</title>
<path fill="none" stroke="#000000" d="M396.5091,-268.4842C386.4672,-263.4291 373.6181,-256.9608 363.5265,-251.8806"/>
</g>
<!-- n0_0 -->
<g id="node21" class="node">
<title>n0_0</title>
<ellipse fill="#ff0000" stroke="#000000" cx="400.1908" cy="-484.1841" rx="18" ry="18"/>
</g>
<!-- n0_1 -->
<g id="node22" class="node">
<title>n0_1</title>
<ellipse fill="#ffffff" stroke="#000000" cx="338.8731" cy="-528.2965" rx="18" ry="18"/>
</g>
<!-- n0_0&#45;&#45;n0_1 -->
<g id="edge19" class="edge">
<title>n0_0&#45;&#45;n0_1</title>
<path fill="none" stroke="#000000" d="M385.3475,-494.8624C375.7069,-501.798 363.1931,-510.8005 353.5798,-517.7165"/>
</g>
<!-- n0_9 -->
<g id="node30" class="node">
<title>n0_9</title>
<ellipse fill="#ffffff" stroke="#000000" cx="459.8234" cy="-441" rx="18" ry="18"/>
</g>
<!-- n0_0&#45;&#45;n0_9 -->
<g id="edge20" class="edge">
<title>n0_0&#45;&#45;n0_9</title>
<path fill="none" stroke="#000000" d="M414.9315,-473.5093C424.0368,-466.9155 435.6877,-458.4783 444.8381,-451.8519"/>
</g>
<!-- n0_2 -->
<g id="node23" class="node">
<title>n0_2</title>
<ellipse fill="#ffffff" stroke="#000000" cx="273.3763" cy="-575.4289" rx="18" ry="18"/>
</g>
<!-- n0_1&#45;&#45;n0_2 -->
<g id="edge21" class="edge">
<title>n0_1&#45;&#45;n0_2</title>
<path fill="none" stroke="#000000" d="M324.0109,-538.9916C313.2919,-546.7051 298.8851,-557.0724 288.1797,-564.7761"/>
</g>
<!-- n0_3 -->
<g id="node24" class="node">
<title>n0_3</title>
<ellipse fill="#ffffff" stroke="#000000" cx="281.3817" cy="-655.7158" rx="18" ry="18"/>
</g>
<!-- n0_2&#45;&#45;n0_3 -->
<g id="edge22" class="edge">
<title>n0_2&#45;&#45;n0_3</title>
<path fill="none" stroke="#000000" d="M275.1928,-593.6472C276.503,-606.7867 278.2639,-624.4467 279.5723,-637.5695"/>
</g>
<!-- n0_5 -->
<g id="node26" class="node">
<title>n0_5</title>
<ellipse fill="#ffffff" stroke="#000000" cx="199.7887" cy="-542.3393" rx="18" ry="18"/>
</g>
<!-- n0_2&#45;&#45;n0_5 -->
<g id="edge23" class="edge">
<title>n0_2&#45;&#45;n0_5</title>
<path fill="none" stroke="#000000" d="M256.6781,-567.9203C244.6351,-562.505 228.4487,-555.2266 216.4208,-549.8181"/>
</g>
<!-- n0_4 -->
<g id="node25" class="node">
<title>n0_4</title>
<ellipse fill="#ffffff" stroke="#000000" cx="288.5034" cy="-730.9112" rx="18" ry="18"/>
</g>
<!-- n0_3&#45;&#45;n0_4 -->
<g id="edge24" class="edge">
<title>n0_3&#45;&#45;n0_4</title>
<path fill="none" stroke="#000000" d="M283.1057,-673.9185C284.2254,-685.7411 285.6788,-701.0871 286.7953,-712.8761"/>
</g>
<!-- n0_8 -->
<g id="node29" class="node">
<title>n0_8</title>
<ellipse fill="#ffffff" stroke="#000000" cx="299.3061" cy="-803.7474" rx="18" ry="18"/>
</g>
<!-- n0_4&#45;&#45;n0_8 -->
<g id="edge25" class="edge">
<title>n0_4&#45;&#45;n0_8</title>
<path fill="none" stroke="#000000" d="M291.1738,-748.9157C292.8357,-760.1214 294.9658,-774.4835 296.6291,-785.6977"/>
</g>
<!-- n0_6 -->
<g id="node27" class="node">
<title>n0_6</title>
<ellipse fill="#ffffff" stroke="#000000" cx="130.7658" cy="-511.6679" rx="18" ry="18"/>
</g>
<!-- n0_5&#45;&#45;n0_6 -->
<g id="edge26" class="edge">
<title>n0_5&#45;&#45;n0_6</title>
<path fill="none" stroke="#000000" d="M183.0802,-534.9146C172.2281,-530.0923 158.1418,-523.8328 147.3204,-519.0242"/>
</g>
<!-- n0_7 -->
<g id="node28" class="node">
<title>n0_7</title>
<ellipse fill="#ffffff" stroke="#000000" cx="65" cy="-478.5611" rx="18" ry="18"/>
</g>
<!-- n0_6&#45;&#45;n0_7 -->
<g id="edge27" class="edge">
<title>n0_6&#45;&#45;n0_7</title>
<path fill="none" stroke="#000000" d="M114.5091,-503.4842C104.4672,-498.4291 91.6181,-491.9608 81.5265,-486.8806"/>
</g>
</g>
</svg>
