<?xml version="1.0" encoding="UTF-8" standalone="no"?>
<!DOCTYPE svg PUBLIC "-//W3C//DTD SVG 1.1//EN"
 "http://www.w3.org/Graphics/SVG/1.1/DTD/svg11.dtd">
<!-- Generated by graphviz version 2.40.1 (20161225.0304)
 -->
<!-- Title: %3 Pages: 1 -->
<svg width="439pt" height="407pt"
 viewBox="0.00 0.00 438.82 406.75" xmlns="http://www.w3.org/2000/svg" xmlns:xlink="http://www.w3.org/1999/xlink">
<g id="graph0" class="graph" transform="scale(1 1) rotate(0) translate(4 402.7474)">
<title>%3</title>
<polygon fill="#ffffff" stroke="transparent" points="-4,4 -4,-402.7474 434.8234,-402.7474 434.8234,4 -4,4"/>
<!-- n0_0 -->
<g id="node1" class="node">
<title>n0_0</title>
<ellipse fill="#ffffff" stroke="#000000" cx="353.1908" cy="-61.1841" rx="18" ry="18"/>
</g>
<!-- n0_1 -->
<g id="node2" class="node">
<title>n0_1</title>
<ellipse fill="#ffffff" stroke="#000000" cx="291.8731" cy="-105.2965" rx="18" ry="18"/>
</g>
<!-- n0_0&#45;&#45;n0_1 -->
<g id="edge1" class="edge">
<title>n0_0&#45;&#45;n0_1</title>
<path fill="none" stroke="#000000" d="M338.3475,-71.8624C328.7069,-78.798 316.1931,-87.8005 306.5798,-94.7165"/>
</g>
<!-- n0_9 -->
<g id="node10" class="node">
<title>n0_9</title>
<ellipse fill="#ffffff" stroke="#000000" cx="412.8234" cy="-18" rx="18" ry="18"/>
</g>
<!-- n0_0&#45;&#45;n0_9 -->
<g id="edge2" class="edge">
<title>n0_0&#45;&#45;n0_9</title>
<path fill="none" stroke="#000000" d="M367.9315,-50.5093C377.0368,-43.9155 388.6877,-35.4783 397.8381,-28.8519"/>
</g>
<!-- n0_2 -->
<g id="node3" class="node">
<title>n0_2</title>
<ellipse fill="#ffffff" stroke="#000000" cx="226.3763" cy="-152.4289" rx="18" ry="18"/>
</g>
<!-- n0_1&#45;&#45;n0_2 -->
<g id="edge3" class="edge">
<title>n0_1&#45;&#45;n0_2</title>
<path fill="none" stroke="#000000" d="M277.0109,-115.9916C266.2919,-123.7051 251.8851,-134.0724 241.1797,-141.7761"/>
</g>
<!-- n0_3 -->
<g id="node4" class="node">
<title>n0_3</title>
<ellipse fill="#ffffff" stroke="#000000" cx="234.3817" cy="-232.7158" rx="18" ry="18"/>
</g>
<!-- n0_2&#45;&#45;n0_3 -->
<g id="edge4" class="edge">
<title>n0_2&#45;&#45;n0_3</title>
<path fill="none" stroke="#000000" d="M228.1928,-170.6472C229.503,-183.7867 231.2639,-201.4467 232.5723,-214.5695"/>
</g>
<!-- n0_5 -->
<g id="node6" class="node">
<title>n0_5</title>
<ellipse fill="#ffffff" stroke="#000000" cx="152.7887" cy="-119.3393" rx="18" ry="18"/>
</g>
<!-- n0_2&#45;&#45;n0_5 -->
<g id="edge5" class="edge">
<title>n0_2&#45;&#45;n0_5</title>
<path fill="none" stroke="#000000" d="M209.6781,-144.9203C197.6351,-139.505 181.4487,-132.2266 169.4208,-126.8181"/>
</g>
<!-- n0_4 -->
<g id="node5" class="node">
<title>n0_4</title>
<ellipse fill="#ffffff" stroke="#000000" cx="241.5034" cy="-307.9112" rx="18" ry="18"/>
</g>
<!-- n0_3&#45;&#45;n0_4 -->
<g id="edge6" class="edge">
<title>n0_3&#45;&#45;n0_4</title>
<path fill="none" stroke="#000000" d="M236.1057,-250.9185C237.2254,-262.7411 238.6788,-278.0871 239.7953,-289.8761"/>
</g>
<!-- n0_8 -->
<g id="node9" class="node">
<title>n0_8</title>
<ellipse fill="#ffffff" stroke="#000000" cx="252.3061" cy="-380.7474" rx="18" ry="18"/>
</g>
<!-- n0_4&#45;&#45;n0_8 -->
<g id="edge7" class="edge">
<title>n0_4&#45;&#45;n0_8</title>
<path fill="none" stroke="#000000" d="M244.1738,-325.9157C245.8357,-337.1214 247.9658,-351.4835 249.6291,-362.6977"/>
</g>
<!-- n0_6 -->
<g id="node7" class="node">
<title>n0_6</title>
<ellipse fill="#ffffff" stroke="#000000" cx="83.7658" cy="-88.6679" rx="18" ry="18"/>
</g>
<!-- n0_5&#45;&#45;n0_6 -->
<g id="edge8" class="edge">
<title>n0_5&#45;&#45;n0_6</title>
<path fill="none" stroke="#000000" d="M136.0802,-111.9146C125.2281,-107.0923 111.1418,-100.8328 100.3204,-96.0242"/>
</g>
<!-- n0_7 -->
<g id="node8" class="node">
<title>n0_7</title>
<ellipse fill="#ffffff" stroke="#000000" cx="18" cy="-55.5611" rx="18" ry="18"/>
</g>
<!-- n0_6&#45;&#45;n0_7 -->
<g id="edge9" class="edge">
<title>n0_6&#45;&#45;n0_7</title>
<path fill="none" stroke="#000000" d="M67.5091,-80.4842C57.4672,-75.4291 44.6181,-68.9608 34.5265,-63.8806"/>
</g>
</g>
</svg>
