<?xml version="1.0" encoding="utf-8"?>
<!DOCTYPE svg PUBLIC "-//W3C//DTD SVG 1.1//EN" "http://www.w3.org/Graphics/SVG/1.1/DTD/svg11.dtd">
<svg version="1.1" id="Layer_1" xmlns="http://www.w3.org/2000/svg" xmlns:xlink="http://www.w3.org/1999/xlink" x="0px" y="0px"
	 viewBox="4.0066 116.1515 2334.9934 2055.1892" enable-background="new 4.0066 116.1515 2334.9934 2055.1892" xml:space="preserve"
	>
<path d="M1861.41,152.43c2.2799-1.72,4.7899,0.01,6.97,1.04c-1.2,52.91-3.41,105.83-8.48,158.53
	c-2.4401,26.33-5.1901,52.64-8.48,78.88c-0.51,4.09-1.05,8.18-1.8501,12.23c-21.36,5.88-42.7799,11.58-64.4099,16.35
	c-24.8301,5.45-49.9401,9.47-75.17,12.52c-22.27,2.53-44.73,4.09-67.14,2.74c-16.9399-0.54-33.89-1.94-50.84-0.9
	c-8.39,0.92-17.23,1.89-24.39,6.73c-7.55,4.56-12.48,12.33-15.64,20.37c-2.14,4.74-0.72,10.02-0.85,15.01
	c0.29,37.05,0.74,74.1,1.3,111.14c2.2899,0.98,6.21,1.56,6.0199,4.84c0.3401,8.76,0.15,17.53,0.76,26.28
	c23.4-0.35,46.7201,2.25,69.9,5.22c23.65,3.48,47.5,7.63,69.73,16.75c8.74,3.86,17.87,8.4901,23.3401,16.66
	c4.73,7.08,3.6499,16.01,3.22,24.06c-0.97,10.48-9.27,18.28-17.91,23.23c0.91,6.66,1.38,14.86-4.08,19.8
	c-0.35,4.36,0.22,8.72,0.34,13.08c0.16,3.61-1.95,7.18-0.5601,10.74c1.4601,4.45,0.16,9.21-2.4399,12.95
	c-0.1899,6.17-2.14,12.14-2.01,18.33c-0.6799,6.1,0.83,12.22-0.38,18.3c3.84,3.3,6.65,7.62,7.99,12.52
	c22.5701-8.21,45.0801-16.62,67.66-24.81c6.5599-2.27,13.11-4.69,19.91-6.17c4.26-0.84,9.0699-1.1,12.89,1.36
	c5.5199,3.32,7.59,10.89,5.0599,16.71c-1.58,3.51-4.74,5.94-8.01,7.76c-4.97,2.7-10.25,4.75-15.53,6.71
	c-6.4299,43.48-12.5699,87.01-19.0599,130.48c-7.17,47.02-16.15,93.78-21.1901,141.11c-5.21,48.9501-8.6699,98.0801-14.1,147.01
	c-3.4299,32.96-7.7,65.87-9.25,98.99c-0.11,3.03-0.41,6.1901,0.6801,9.12c2.11,6.3101,3.9399,12.72,6.0699,19.04
	c8.14-6.36,17.27-11.92,27.61-13.65c-0.5399-4.3,1.8201-8.22,1.41-12.47c-0.45-11.3301-1.91-22.67-1.21-34.01
	c0.7-6.62,11.39-8.0601,13.9099-1.91c1.8601,8.17,0.3101,16.61,0.49,24.9c0.1801,5.75-1.1499,11.77,1,17.3
	c0.75,1.9399,0.67,4.0599,0.77,6.12c8.41,0.48,16.9301,0.96,25.04,3.5c4.3-4.42,4.48-10.91,6.2-16.5
	c2.2201-7.9601,3.3401-16.36,6.9801-23.8401c4-5.58,13.85-1.11,13.4399,5.41c-1.22,7.9401-4.55,15.37-7.01,22.98
	c-1.46,4.98-4.1899,9.77-3.99,15.1c-0.01,1.67-0.25,3.3401-0.47,5.03c10.2999,8.02,18.38,18.53,24.4399,30.04
	c4.74-5.96,8.87-12.4,13.8401-18.1801c1.6699-1.7,3.4099-4,6.0699-3.88c6.4301-0.0299,10.54,8.7201,6.77,13.8301
	c-5.21,7.62-12.65,13.36-18.4501,20.5c-1.35,1.48-1.23,3.7-0.5199,5.47c6.3199,17.67,9.96,36.28,11.09,55
	c6.0699-1.27,11.95-3.5601,18.1799-4.0601c2.62-0.2,5.17,1.3,6.4601,3.5901c1.84,2.84,1.2,6.37,0.9399,9.5599
	c68.99,1.78,137.8301,7.0901,206.6001,12.66c26.9399,2.35,53.9299,4.04,80.8398,6.78c18.1201,1.5,36.0701,4.62,54.24,5.49
	c7.25,0.76,14.55,0.4399,21.8401,0.8199c8.5901,0.47,16.77,3.3,25.1001,5.22c5.6599,1.3401,11.76,4.1001,14.3098,9.7101
	c2.3501,6.12,2.53,13.38-0.4299,19.33c-3.97,6.66-12.52,7.2001-19.3201,8.76c2.4202,3.28,1.1501,7.16-0.4099,10.51
	c-0.99,0.39-1.95,0.8-2.8799,1.24c1.3999,4.45,2.3298,9.14,1.51,13.8201c0.9299,2.0299,2.48,4.1499,1.7898,6.5299
	c-0.5398,1.35-1.48,2.49-2.25,3.7101c-0.01,4.88-1.3398,9.6-3.2998,14.0499c0.6099,0.27,1.8198,0.8101,2.4299,1.09
	c1.22,2.79,1.46,5.8501,1.25,8.89c7.71,0.9,15.51,1.3,23.1299,2.87c3.1602,0.7201,7.03,1.8201,8.26,5.24
	c3.3,10.38,0.22,21.16-2.29,31.3401c-1.8999,7.52-5.23,14.76-10.0999,20.83c-3.51,4.11-9.28,4.29-14.1401,5.51
	c-11.3699,41.5-22.8198,82.98-34.8298,124.3101c-12.1501,41.63-24.8,83.1699-40.1301,123.7699
	c-13.99,37.29-30.9199,73.4301-49.5999,108.5901c-11.6201,22.34-24.1902,44.1699-36.3,66.23c3.1499,0.99,6.8899,1.1699,9.45,3.52
	c1.8401,3.3799,1.8401,7.4299,2.28,11.1899c0.28,6.3,0.53,12.73-0.72,18.95c-0.99,4.01-6.1001,3.52-9.27,4.1802
	c-24.8201,1.4399-49.71,1.1499-74.5601,1.98c-179.6699,3.03-359.34,5.6799-539.02,7.8599c-218.2999,2.8-436.61,4.1799-654.9399,3.77
	c-28.68-0.1499-57.36-0.04-86.03-0.5901c-6.19-0.5498-12.54-0.0498-18.55-1.7798c-3.08-0.9402-3.84-4.49-4.06-7.27
	c-0.72-8.3401-0.82-16.71-0.93-25.0601c-0.23-2.9199,1.02-5.54,2.85-7.6899c-19.61-35.02-39.57-69.8601-58.18-105.42
	c-23.99-45.5701-44.06-93.1-61.83-141.4c-182.75-66.62-366.2-131.3201-549.07-197.62c-7.56-3-15.43-5.2001-22.82-8.62
	c0.02-6.5601,1.01-13.0801,2.52-19.4401c0.83-2.99,1.9-6.64,5.18-7.71c6.88-2.77,13.77,1.25,20.52,2.5
	c2.61,0.28,5.89,2.4301,8.04,0.0699c25.04-23.2999,50.04-46.6399,75.01-70.0099c52.34-48.3,104-97.3201,155.65-146.3601
	c54.1-51.5699,108.11-103.24,161.65-155.3899c52.75-51.55,105.21-103.4,157.31-155.62C682.06,1036.48,733.88,984.66,786.03,933.19
	c56.7-55.68,113.62-111.14,170.08-167.06c18.66-18.65,37.45-37.18,55.58-56.36c1.14-1.4,2.92-2.69,2.76-4.71
	c0.25-16.37,0.75-32.74,0.92-49.11c0.11-3.49-0.02-6.99,0.44-10.44c0.23-2.33,2.78-3.13,4.69-3.68
	c6.6801-1.44,13.76-1.68,20.37,0.25c1.8,0.55,3.95,1.66,4.02,3.83c1.72,13.27,2.58,26.6801,2.39,40.07
	c-0.14,9.06,0.38,18.15-0.55,27.18c3.15,1.23,7.24,2.13,8.53,5.72c1.55,4.17,1.3,8.71,1.39,13.09
	c-0.0801,3.73,0.0399,7.6801-1.62,11.13c-1.49,2.89-4.67,4.11-7.51,5.23c0.97,25.55,0.27,51.12,0.54,76.69
	c0.1799,15.75-0.4,31.51,0.1399,47.26c57.9601-25.38,115.9801-50.63,173.9701-75.96c8.09-3.39,16.12-7.19,24.73-9.06
	c5.65-1.4,12.2899,0.26,15.75,5.18c4.3199,5.48,3.6799,14-1.4501,18.75c-6.12,5.79-14.26,8.68-21.7699,12.2
	c-6.6101,44.05-13.6901,88.03-20.14,132.12c25.2999,4.3,50.9199,7.07,76.61,7.25c6.64-5.05,14.75-7.47,22.4299-10.47
	c65.3501-23.89,130.62-48.03,196-71.84c-35.95-0.98-72.4199-3.97-106.5199-16.17c-8.4901-3.36-17.63-7.19-22.91-15.04
	c-4.37-6.55-4.0801-14.77-3.51-22.27c0.54-5.34,0.8099-10.8199,2.71-15.8799c1.42-3.85,4.4501-6.72,7.2001-9.64
	c-0.4301-4.31-1.3401-8.51-3.1801-12.42c-0.67-4.33-1.5-9.55,1.5-13.21c-0.61-6.13-4.2-11.58-4.17-17.8
	c0.4401-5.08-4.5599-8.85-3.5699-14.01c2.13-9.29-1.61-18.57-1.64-27.88c-1.25-2.17-2.26-4.44-3.0699-6.79
	c-7.13-4.01-14.1001-9.6-16.5801-17.72c-2.0499-7.31-2.7899-15.3-0.5299-22.64c2.85-8.31,10.1699-13.96,17.4399-18.31
	c14.36-8.39,30.34-13.52,46.35-17.7c24.66-6.11,49.9-9.43,75.14-11.98c8.52-0.65,17.02-1.5,25.5701-1.73
	c0.0099-9.42-0.3301-18.86,0.1399-28.26c1.87-2.93,5.7001-3.17,8.75-4.03c-1.25-114.64-2.5299-229.28-3.83-343.92
	c0.12-4.67-0.39-9.38,0.3-14.02c4.6-4.22,12.0499-3.29,17.5299-1.29c0.38,2.35,0.6801,4.72,0.9301,7.09
	c17.61-6.64,35.49-12.97,54.13-16.01c27.95-4.82,56.36-1.43,84.52-1.43c17.39,0.36,34.99-0.67,51.78-5.55
	c21.72-6.13,41.23-17.75,61.2799-27.77C1820.63,173.72,1841.05,163.13,1861.41,152.43 M1557.09,661.01
	c0.38,12.91,0.4,25.83,0.7101,38.74c0.4299,0.06,1.2999,0.18,1.74,0.24c-0.42-7.26,1.37-14.33,2.46-21.44
	c-0.65-0.27-1.96-0.82-2.61-1.09c-0.96-3.7401-1.84-7.6-1.54-11.48c0.41-2.67,1.7101-5.17,1.61-7.92
	c-0.1799-1.67,0.6001-4.08-1.5699-4.67C1555.88,655.42,1557.25,658.5,1557.09,661.01 M1516.53,654.84
	c-0.9401,6.24,3.08,11.8799,1.76,18.08c-0.29,2.84-0.75,6.07-3.77,7.27c1.65,6.94,3.27,13.96,3.2,21.15
	c3.24-0.03,6.5-0.07,9.77-0.07c0.02-15.65,0.01-31.29,0-46.92C1523.8199,654.5,1520.17,654.67,1516.53,654.84 M1580.27,654.51
	c-0.9501,5.47,2.11,10.57,1.15,16c-0.5801,3.12-0.7101,7.27-4.3401,8.41c1.05,6.55,2.4601,13.1,2.2301,19.78
	c12.7599-0.6,25.5-1.61,38.1899-3.07c0.85-4.15,1.88-8.24,2.83-12.36c-3.9099-1.91-3.37-6.73-3.72-10.36
	c-0.42-3.5099,2.04-6.46,2.04-9.91c0.08-1.62,0.11-3.24,0.1699-4.85C1606.02,656.39,1593.15,655.28,1580.27,654.51 M1458.6,662.51
	c0.25,3.07,0.36,6.25,1.62,9.13c2.03,4.58,0.9401,9.7,0.05,14.43c-0.5801,0.25-1.74,0.76-2.3201,1.02
	c0.75,3.27,1.62,6.5099,2.52,9.75c12.37,1.98,24.87,2.87,37.36,3.71c-0.2699-6.59,0.78-13.13,1.78-19.62
	c-3.51-1.02-3.98-4.8-4.5499-7.86c-1.41-5.39,1.7-10.61,0.6-16.06C1483.2,657.96,1470.8199,659.94,1458.6,662.51 M1639.25,661.88
	c-0.73,4.45,1.7,8.72,0.71,13.14c-0.73,3.33-0.96,7.69-4.76,8.99c0.24,2.62,0.53,5.24,0.79,7.86c8.65-1.66,17.05-4.42,25.28-7.54
	c-0.3201-5.36,3.37-9.92,2.66-15.36C1655.87,666.06,1647.66,663.54,1639.25,661.88 M1416.13,675.52
	c0.34,3.77,0.71,7.88,3.3099,10.87c7.42,3.2,15.38,4.92,23.14,7.09c0.25-1.51,0.5-3.01,0.78-4.5c-4.0499-1.14-4.41-5.72-5.22-9.17
	c-1.0701-4.21,1.22-8.34,0.45-12.59C1430.92,669.45,1423.29,671.96,1416.13,675.52 M1642.51,725.35c-0.48,3.92-0.09,7.84,0.73,11.69
	c-0.28,4.51-0.97,9.67-4.79,12.63c1.02,5.4,1.62,10.92,1.02,16.41c-0.62,4.02,1.5901,7.74,1.48,11.76
	c4.4301,0.85,8.87,1.68,13.3,2.62c0.34-3.53,0.79-7.1,0.13-10.61c-0.83-4.79,0.63-9.56,2.41-13.95
	c0.63-0.19,1.8999-0.58,2.5299-0.78c-0.9099-6.69-1.48-13.47-0.61-20.2c0.5801-4.31-1.52-8.42-1.1499-12.74
	C1652.58,723.39,1647.51,724.25,1642.51,725.35 M1426.6,725.94c2.8,5.13,3.25,12.51-0.51,17.26c1.65,5.51,3.62,10.99,3.87,16.81
	c0.0701,4.61,4.38,8.26,3.1901,13.07c-1,3.71-1.11,7.54-0.39,11.33c5.27-1.28,10.5599-2.54,15.9299-3.43
	c-0.3999-4.82-0.0699-9.88-2.08-14.4c-1.88-4.45-0.86-9.39-0.12-13.97c0.6-0.28,1.78-0.84,2.38-1.11
	c-2.13-7.33-4.3199-14.73-4.36-22.43C1438.5,728.24,1432.5699,726.97,1426.6,725.94 M1587.3199,732.62
	c-0.45,3.88,0.4301,7.65,1.2401,11.4c-0.28,4.25-0.51,9.26-4.2001,12.08c1.04,5.38,1.96,10.81,1.89,16.31
	c8.83,0.44,17.6899,0.92,26.48,1.97c0.49-4.11,1.21-8.33,0.22-12.41c-1.36-4.85,0.15-9.8199,1.53-14.48
	c0.62-0.26,1.87-0.78,2.49-1.04c-0.5399-5.63-1.48-11.23-1.5399-16.9C1606.1,730.9,1596.71,731.89,1587.3199,732.62 M891.57,840.49
	C838.02,891.97,784.6,943.6,731.92,995.96C676.61,1051,621.22,1105.96,565.89,1160.96c-81.33,80.3301-162.81,160.51-245.11,239.86
	c-51.8,49.88-103.9,99.4401-155.8,149.2301c-24.52,23.4099-49.24,46.61-73.85,69.9199c3.08,0.8,6.14,1.66,9.19,2.5701
	c62.82-50.29,126.52-99.4601,188.78-150.4501c61.02-49.77,121.2-100.6,179.62-153.4199c55.33-49.89,108.96-101.65,161.22-154.76
	c51.84-52.86,102.79-106.5801,153.11-160.9c52.8-56.74,103.51-115.43,152.11-175.81c23.4901-28.92,46.28-58.39,69.54-87.49
	c-0.09-3.13-0.14-6.25-0.14-9.36C967.64,767.81,929.48,804.03,891.57,840.49 M1470.55,732.41c2.49,6.53,4.0299,14.55-0.26,20.69
	c0.36,2.71,1.4099,5.28,1.97,7.96c1.42,5.15,0.09,10.95,3.39,15.54c8.5-1.27,17.0699-1.93,25.61-2.89
	c-0.59-4.72,0.12-9.67-1.61-14.18c-1.5601-3.91-0.67-8.19-0.0601-12.19c0.04-1.71,1.77-2.3701,2.88-3.34
	c-0.7999-3.2-1.5699-6.4-2.23-9.62C1490.34,733.7,1480.4399,733.06,1470.55,732.41 M1558.6,734.42c0.0601,3.15,0.12,6.3,0.16,9.46
	c1.01-0.42,2.01-0.85,3.0699-1.26c-0.4399-2.77-0.97-5.52-1.48-8.27C1559.91,734.37,1559.04,734.4,1558.6,734.42 M1681.11,749.76
	c0.36-1.65,0.71-3.29,1.11-4.92c-0.6799-2.4901-1.22-5.01-1.7999-7.5C1680.42,741.49,1680.75,745.62,1681.11,749.76 M918.82,928.25
	c8.95-3.24,17.5-7.49,26.29-11.13c21.48-9.29,42.88-18.76,64.39-27.95c0.47-21.4,0.97-42.8,1.3-64.2
	c0.85-25.6299,0.3-51.33,2.46-76.92c-1.51-0.54-3.02-1.1-4.51-1.65C978.53,806.89,947.71,867.1,918.82,928.25 M1525.36,757.07
	c0.8,3.33,1.5601,6.67,2.23,10.04c-0.0399-3.98,0.01-7.95,0.04-11.92C1526.85,755.8,1526.1,756.43,1525.36,757.07 M1407.9399,759.73
	c-0.7799,0.8-0.5299,3.23,0.9301,2.97C1409.6801,761.89,1409.26,759.54,1407.9399,759.73 M1186.02,1229.97
	c-4.42,51.2101-6.23,102.61-6.84,154c-0.6801,28.9601-0.75,57.9301-0.3101,86.9c6.14-0.4301,12.96-1.6801,18.49,1.84
	c5.54,3.25,7.65,10.5901,5.84,16.5601c-1.7,4.9199-6.22,8.24-10.96,9.95c-8.15,2.9-16.76,4.14-25.23,5.76
	c-38.1801,6.86-76.27,14.2001-114.46,21.01c0.1399,16.97,0.0599,33.96,0.45,50.9401c0.67,53.2799,0.8199,106.5699,0.73,159.86
	c53.76,0.61,107.53,1.77,161.25,4.1c8.74,0.73,17.71,0.52,26.2001,2.98c4.1499,1.02,6.1399,5.1801,6.7,9.09
	c2.01,11.77,2.54,24.5801-3.0699,35.51c26.7599,0.27,53.5299,1.1,80.2799,0.78c10.78-5.02,20.63-11.9399,30.4401-18.63
	c40.0399-28.36,75.02-63.03,109.5599-97.6801c-10.08-0.4199-20.1799-0.7999-30.1899-2.0299c-2.86-0.52-6.47-1.13-7.72-4.15
	c-3.4301-7.4-2.1001-15.91-0.02-23.49c2.09-7.88,5.75-15.26,9.8199-22.29c2.4-4.54,8.03-5.01,12.4301-6.41
	c10.9-3.34,22.4-2.6699,33.63-3.6899c14.6-0.28,29.22-0.26,43.8199,0.33c-0.13-9.75,0.62-19.5299-0.42-29.24
	c0.4501-7.85,1.6801-15.9399-0.2-23.6799c-55.5699,8.0599-111.12,16.26-166.67,24.4299c-7.95,0.86-16.2,3.17-24.09,0.91
	c-7.38-2.13-10.4399-12.14-6-18.23c3.5601-4.97,9.99-6.0801,15.55-7.35c-26.4-24.5801-53.8-48.39-76.5701-76.51
	c-12.24-15.23-22.4399-32.2001-29.2999-50.54c-7.8201-20.12-11.26-41.62-13.02-63.04c-2.11-24.59-1.5701-49.2899-0.22-73.89
	c1.48-23.9199,4.33-47.7599,9.01-71.2699c8.09-40.53,21.9099-79.5701,34.73-118.77c13.1699-40.5801,26.24-81.2,39.75-121.67
	c-4.1,0.3-8.74,1.12-12.29-1.49c-3.1-2.02-4.54-5.6-5.14-9.1c-24.83-0.48-49.58-3.16-74.08-7.16
	C1205.5699,1052.84,1193.49,1141.17,1186.02,1229.97 M1775.88,1367.53c-0.59,3.76,0.37,8.2999-2.55,11.3099
	c0.77,7.05,2.26,14.05,2.16,21.1901c-0.12,2.47,1.37,4.59,1.83,6.98c-0.0499,1.76-0.99,3.34-1.6,4.98
	c0.47,8.0701-0.7899,16.0701-1.36,24.1c0.62,0.17,1.86,0.5,2.48,0.66c0.51-3.8,1.02-7.6,1.76-11.35c0.74-4.15,2.59-8.13,2.16-12.42
	c-0.51-3.79,3.45-5.9399,4.02-9.47c1.5399-5.85,4.52-11.14,6.62-16.76c-0.03-3.52-0.37-7.0601,0.4399-10.53
	C1787.04,1372.48,1781.84,1369.0601,1775.88,1367.53 M1745.08,1389.9301c0.2301,2.5499,0.2001,5.13,0.4601,7.7
	c0.7899,2.26,2.1899,4.26,3.2899,6.4c2.2201,3.9,3.14,8.52,6.25,11.9199c2.11,2.2301,0.9601,5.51,1.8301,8.2201
	c0.9299,3.1599,2.02,6.2999,2.76,9.5299c1.1899,0.0701,2.3999,0.15,3.64,0.25c-1.17-7.1599-2.2101-14.38-2.0901-21.6499
	c-2.21-3.15-1.98-6.9701-0.12-10.1901c-0.66-7.74,0.74-15.4299,1.3301-23.12c-0.87-1.2-1.7001-2.42-2.4801-3.63
	C1754.29,1379.45,1749.29,1384.37,1745.08,1389.9301 M1802.64,1388.38c-0.92,4.37-1.4401,8.8199-2.3101,13.21
	c-0.74,3.8201-2.4299,7.5-2.0699,11.49c0.7,3.8201-3.21,6.04-3.92,9.52c-1.6599,6.14-4.75,11.73-6.98,17.66
	c1.14,2.16,1.14,4.6,1.3,7c3.87-4.88,7.5-10.04,9.99-15.76c5.16-2.98,8.76-7.8,13.36-11.51c2.77-2.42,4.4-6.79,2.5-10.1799
	C1811.25,1402.34,1807.9301,1394.65,1802.64,1388.38 M1735.24,1404.5601c-2.42,4.6399-5.01,9.2699-6.51,14.3099
	c0.0601,5.05,0.9401,10.0699,1.11,15.14c4.9401-0.54,9.85-1.38,14.8401-1.39c-0.89-3.45-3.2401-6.08-5.1101-8.96
	C1739.51,1417.02,1736.71,1410.9301,1735.24,1404.5601 M747.23,1424.74c-5.27,56.78-1.87,114.1801,7.85,170.3101
	c4.06,23.83,9.25,47.4399,13.78,71.1899c9.11,5.3,17.01,12.46,26.11,17.8c33.8,20.4299,70.1801,36.0599,106.45,51.48
	c4.23,2.11,9.08,1.08,13.62,1.22c27.22,0.02,54.44-0.39,81.66-0.12c0.6-66.88,2.27-133.76,3.02-200.65
	c-49.89,9.04-99.6899,18.62-149.55,27.8101c-7.64,1.1699-15.64,3.62-23.27,1.24c-6.91-2.16-10.51-10.91-7.1-17.3
	c2.68-5.5699,8.92-7.6799,14.43-9.28c-6.61-8.6-13.52-16.97-20.46-25.2999c-12.18-14.41-25.63-27.7001-37.48-42.4
	C764.82,1456.62,755.31,1441.01,747.23,1424.74 M1812.3,1443.29c-5.89,3.39-9.8601,9.0399-15.2301,13.11
	c1.3501,3.83,2.5801,7.7,3.55,11.65c4.65-0.51,8.42-4.6101,13.27-3.49c3.9,0.4099,7.84,0.25,11.77,0.2599
	c-0.5-11.84-2.25-23.59-4.79-35.1499C1817.54,1433.9301,1814.4301,1438.33,1812.3,1443.29 M875.86,1445.92
	c-11.79,1.24-23.73,3.2899-34.49,8.5c-7.29,3.5299-14.04,8.84-17.74,16.1899c-4.17,8.04-4.18,17.67-1.73,26.24
	c4.21,14.74,13.3199,27.36,22.36,39.49c52.05-10.25,104.14-20.2899,156.14-30.74c0.15-17.34,0.35-34.6899,0.8199-52.02
	c-15.6899-2.34-31.4399-4.25-47.21-5.86C928.06,1445.3101,901.89,1443.5,875.86,1445.92 M1052.11,1461.58
	c0.09,11.3,0.05,22.6001,0.24,33.9c29.54-5.97,59.11-11.84,88.7001-17.53C1111.41,1472.4399,1081.8101,1466.77,1052.11,1461.58
	 M1393.22,1475.2c-6.45,3.1801-12.0599,8.15-15.6699,14.41c-4.24,7.1-5.9801,15.3-7.63,23.3101
	c-2.92,14.1499-5.6901,28.33-8.51,42.5c45.2899-7.17,90.64-14.02,135.9099-21.3201c1.0601-3,0.51-7.16,3.7101-8.95
	c8.15-4.09,17.25-5.5601,26.24-6.52c-0.12-14.85-0.13-29.7-0.46-44.54c-33.4401-3.6899-67.0701-7.8199-100.78-6.22
	C1414.84,1468.64,1403.36,1470.0699,1393.22,1475.2 M1813.04,1482.21c-3.8501-0.5399-7.7201-0.86-11.5801-0.58
	c-0.4099,5.01-1.47,9.9399-2.39,14.88c3.8301,1.9399,7.13,4.84,11.1801,6.41c1.54,0.5699,3.02,1.46,3.85,2.99
	c1.87,3.27,4.7101,5.7799,7.26,8.5299c2.42-12.1299,4.13-24.4199,4.3101-36.7999C1821.26,1478.64,1817.23,1480.6899,1813.04,1482.21
	 M1575.78,1480.6801c0.2899,12.85,0.5699,25.71,0.78,38.5699c6.08,0.04,12.24,0.9399,18.2799-0.3
	c29.8301-4.6699,59.66-9.4199,89.52-13.9199c-0.03-0.97-0.08-2.89-0.11-3.86c-4.78,1.08-9.4399,2.7-14.3101,3.34
	c-2.5099,0.39-5.34-0.4401-6.73-2.64c-1.8099-2.37-1.6799-5.45-1.71-8.25C1632.96,1489.0699,1604.38,1484.79,1575.78,1480.6801
	 M1880.16,1513.3c-1.04,0.1799-2.0601,0.38-3.0601,0.6c1.4,4.4199,2.7101,8.9199,2.7001,13.62c9.63,0.23,19.26,0.64,28.8999,0.9
	c0.79-3.86,1.8101-7.65,2.9601-11.41c-0.74-0.15-2.2201-0.46-2.9601-0.62c-1.0599-2.65-1.5599-5.47-1.6499-8.29
	c-8.3401-0.61-16.6901-0.85-25.03-1.37C1881.45,1508.9301,1880.8199,1511.11,1880.16,1513.3 M1789.84,1511.99
	c-1.89,5.04,2.13,9.1,4.0601,13.4c6.85,0.1899,13.7,0.4,20.5599,0.37c-4.24-3.02-8.64-5.77-13.38-7.88
	c-2.4299-3.41-4.83-6.86-8.0299-9.59C1791.96,1509.51,1790.91,1510.75,1789.84,1511.99 M1856.72,1508.74
	c-1.03,6.05-2.1799,12.08-3.5699,18.0601c1.75,0.0199,3.53,0.0499,5.3199,0.11c0.37-4.54,1.47-8.9501,3.04-13.2101
	c-0.66-0.12-1.96-0.35-2.61-0.47C1858.15,1511.71,1857.42,1510.23,1856.72,1508.74 M1932.16,1509.53
	c-0.4401,2.33-0.9701,4.6599-1.7001,6.9299c-1.09,0.3501-2.1699,0.73-3.21,1.12c1.29,3.64,2.3199,7.39,2.71,11.26
	c9.27,0.53,18.5701,0.7101,27.86,0.85c0.63-2.96,1.4401-5.87,2.2401-8.7799c-4.4701-1.14-4.3201-6.4301-4.3601-10.0901
	C1947.84,1510.5699,1940.01,1509.84,1932.16,1509.53 M1980.7,1512.41c-0.45,3.33-0.61,7.96-4.75,8.7c0.8101,3,1.65,6,2.4501,9.03
	c9.0399,0.47,18.0699-0.58,27.12-0.4401c0.54-1.85,1.11-3.6599,1.6899-5.47c-0.7-0.2-2.09-0.59-2.7899-0.79
	c-1.3-3.09-2.4-6.5199-0.79-9.72C1995.97,1513.51,1988.34,1512.77,1980.7,1512.41 M2027.4399,1515.26
	c-0.09,3.59-0.23,8.51-4.5699,9.5c0.45,1.54,0.95,3.11,1.45,4.6799c8.4601-0.37,16.8301-1.74,25.2701-2.4099
	c-1.1001-3.37-2.4301-7.37,0.1599-10.4C2042.29,1516.35,2034.87,1515.64,2027.4399,1515.26 M2072.47,1518.16
	c-0.02,1.9-0.04,3.83-0.0601,5.76c4.8501-0.4601,9.6802-1.2001,14.54-1.74c2.51-0.4,5.3201-0.3501,7.3101-2.2401
	C2087.03,1518.95,2079.73,1518.74,2072.47,1518.16 M1778.1,1521.6899c-0.89,0.7101-0.78,3.13,0.6801,3.01
	C1779.66,1523.96,1779.4301,1521.58,1778.1,1521.6899 M2235.04,1540.34c-0.28,0.52-0.8301,1.55-1.1001,2.0701
	c-0.6599,0.1-1.97,0.3199-2.6299,0.4199c1.78,4.87,2.8999,9.9801,2.48,15.2101c2.6499,2.86,2.75,7.1899-0.02,10.0299
	c0.3999,5.1801-0.77,10.26-2.6101,15.0901c0.73,0.1599,2.1902,0.47,2.9202,0.63c1.1499,2.8199,1.7,5.83,1.45,8.9099
	c2.1299,0.2101,4.28,0.4401,6.46,0.67c0.3201-3.55,0.8801-7.9,4.8401-9.1801c-1.47-4.5399-1.9302-9.3199-1.47-14.0499
	c-0.7102-1.36-1.6001-2.64-1.8901-4.11c-0.4299-2.38,1.4299-4.1801,2.5701-6.03c-0.1301-4.8199,1.28-9.42,3.05-13.84
	c-0.6001-0.26-1.8101-0.79-2.4102-1.05c-0.5698-2.02-1.1099-4.03-1.5698-6.03C2241.72,1539.38,2238.3701,1539.78,2235.04,1540.34
	 M2195.6101,1545.46c0.4099,3,0.6099,6.04,0.6399,9.0901c2.6101,2.8999,2.55,6.84-0.03,9.76
	c0.1899,5.1899-0.8999,10.3099-2.79,15.1399c0.99,0.3501,2.01,0.7201,3.0601,1.1101c1.1001,2.8099,1.47,5.8199,1.28,8.85
	c1.53,0.0599,3.1001,0.15,4.6799,0.25c-1.48-4.67-2.1499-9.55-1.6799-14.42c-2.29-3.0699-2.0701-7.13,0.72-9.79
	c-0.04-4.7699,1.23-9.3899,3.22-13.6799c-0.9399-0.5801-1.8499-1.14-2.73-1.6801c-0.49-1.86-0.97-3.71-1.4099-5.5299
	C2198.8701,1544.8199,2197.25,1545.15,2195.6101,1545.46 M2155.78,1550.38c1.0601,1.77,2.6899,3.46,2.6199,5.6899
	c-0.5,2.39-2.48,4.3401-2.25,6.9301c-0.0298,4.5601-1.22,8.98-2.77,13.25c0.7102,0.13,2.1401,0.4,2.8501,0.53
	c1.3701,2.95,1.8301,6.1799,1.48,9.4299c0.9001,0.05,2.7,0.14,3.6101,0.1901c0.03-2.1901,0.1099-4.35,0.22-6.5
	c-0.8601-1.89-2.4199-3.8101-1.71-5.98c0.5898-1.41,1.48-2.64,2.3398-3.89c-0.0598-4.6801,1.1902-9.2101,3.2002-13.4
	c-0.8801-0.52-1.7302-1.03-2.5601-1.52c-0.51-1.86-1-3.71-1.45-5.5499C2159.47,1549.8199,2157.6201,1550.09,2155.78,1550.38
	 M2115.3899,1555.41c-0.2998,0.4399-0.9099,1.3099-1.22,1.75c0.55,5.4399-0.96,10.71-2.6799,15.8099
	c0.73,0.15,2.2,0.4301,2.9399,0.5801c1.3501,3.0299,1.6702,6.35,1.1902,9.6399c1.99,0.1001,4,0.2201,6.0398,0.39
	c-1.5798-3.1799-0.7998-6.4199,1.5-8.9399c-0.1099-4.61,1.3601-8.96,2.8801-13.24c-2.6699-1.39-3.0801-4.39-3.6602-7.01
	C2120.02,1554.7,2117.7,1555.04,2115.3899,1555.41 M1576.97,1557.9399c0.4501,17.3601,0.48,34.7401,0.9,52.1001
	c0.01,1.52,0.87,2.39,2.58,2.6c-0.2799-3.73-1.01-9.04,3.4-10.6801c-1.6799-4.37-2.7899-8.95-2.65-13.6599
	c-2.49-2.74-2.6499-6.6001-0.4399-9.53c-0.3-4.7001,0.4399-9.37,1.91-13.8201c-3.9701-1.3999-4.0801-5.88-4.42-9.38
	C1577.28,1556.08,1576.86,1556.87,1576.97,1557.9399 M1599.47,1563.3101c-0.62,0.21-1.84,0.6499-2.45,0.86
	c1.58,4.5,2.9199,9.14,2.6699,13.97c0.8701,1.52,2.26,2.99,2.15,4.9c-0.36,2.38-1.89,4.48-1.6599,6.98
	c0.12,3.89-1.02,7.63-1.6801,11.4399c3.96,2.1001,5.01,7.4701,2.6899,11.1801c10.7101,0.1,21.41,0.7,32.1201,0.7999
	c-0.27-3,0.0399-6,1.2899-8.75c0.59-0.1499,1.78-0.45,2.37-0.6c-1.6899-4.5-2.97-9.1699-2.77-14.01
	c-1.08-1.8199-2.84-3.88-1.83-6.11c2.4-5.4199,0.73-11.63,3.29-17.08c-3.9601-1.4501-4.4401-6.01-4.2001-9.63
	c-10.1699-0.08-20.33-0.74-30.49-0.85C1600.65,1558.73,1600.14,1561.03,1599.47,1563.3101 M1653.89,1558.1
	c-0.27,2.41-0.75,4.8-1.52,7.12c-0.61,0.2101-1.8199,0.64-2.42,0.86c1.5801,4.52,2.88,9.2001,2.6801,14.0601
	c2.85,2.6899,2.48,6.6899,0.26,9.65c0.75,4.5699-0.38,9.08-1.7001,13.4399c4.27,1.63,5.02,7.13,3.3101,10.91
	c10.61,0.04,21.22,0.38,31.84,0.63c-0.5299-5.3301,2.66-10.3101,1.61-15.62c-0.4399-2.78-0.62-5.59-0.6799-8.37
	c-2.05,0.23-4.3,1.33-6.22,0.1899c-4.12-2.08-6.65-7.75-4.2201-11.9399c2.37-4.3,6.03-7.66,9.39-11.1801
	c-1.22-2.88-1.95-5.9399-1.58-9.0699C1674.39,1558.62,1664.14,1558.24,1653.89,1558.1 M2070.3701,1560.73
	c-0.3701,2.84-0.8201,5.7001-1.5601,8.49c3.77,2.2001,4.3101,7.4601,2.55,11.15c3.5698,0.1,7.1499,0.46,10.76,0.46
	c1.25,0.2301,2.1699-0.75,3.1199-1.3999c-0.55-4.7301,0.99-9.2401,2.8201-13.51c-0.8601-0.51-1.7-1-2.51-1.4701
	c-0.4399-1.7799-0.8901-3.5599-1.27-5.3099C2079.6299,1559.63,2075.01,1560.28,2070.3701,1560.73 M1780.21,1561.1899
	c0.1801,2.9301,0.38,5.88,0.5901,8.8301c3.5599-0.49,7.12-1.02,10.6899-1.47c-0.38-2.41-0.37-4.8501,0.16-7.2201
	C1787.83,1561.34,1784.01,1561.26,1780.21,1561.1899 M1840.97,1562.52c-0.96,2-1.9,4.01-2.85,6.02c2.11,0.0599,4.23,0.14,6.36,0.25
	c-0.03-2.14,0.11-4.3,1.0601-6.24C1843.99,1562.52,1842.47,1562.52,1840.97,1562.52 M1881.89,1563.39
	c-0.72,1.9399-1.55,3.86-2.12,5.87c0.13,1.63,2,0.9299,3.13,1.22c5.22,0.17,10.45,0.3,15.6699,0.79
	c-0.36-2.5801-0.5499-5.24,0.8601-7.55C1893.58,1563.74,1887.73,1563.48,1881.89,1563.39 M2028.25,1565.35
	c2.9,4.0801,0.86,9.53-3,12.16c7.47,0.7,14.97,0.95,22.47,1.38c0.0801-3.03,0.6401-6,1.6899-8.83
	c-1.0498-2.1001-1.7799-4.3201-2.1299-6.6201C2040.96,1564.36,2034.54,1564.29,2028.25,1565.35 M1931.64,1564.47
	c0.21,2.85-0.65,5.5701-1.83,8.13c7.8899,0.51,15.7899,0.86,23.7,1.23c-1.0701-2.95-1.6901-6.1899,0.03-9.01
	C1946.24,1564.8,1938.9301,1564.67,1931.64,1564.47 M1979.3199,1565.37c0.9401,3.33,1.2001,6.85-0.9399,9.8199
	c8.3199,0.3,16.62,0.78,24.9301,1.3401c-1.54-3.2001-0.4501-6.6,0.6399-9.7101c1.0601-0.3899,2.1901-0.73,3.29-1.09
	C1997.9301,1565.5,1988.62,1565.6801,1979.3199,1565.37 M378.03,1592.52c-45.01,2.33-89.86,7.1899-134.51,13.2999
	c-43.69,5.9901-87.19,13.3201-130.77,20.04c33.3,9.4501,66.61,18.9301,100.12,27.61c23.15,5.41,46.09,11.62,69,17.9301
	c81.76,22.36,163.47,44.88,245.14,67.5599c18.21,4.9401,36.28,10.41,54.56,15.05c1.66-4.9401,4.19-9.9301,8.73-12.79
	c5.03-2.9199,11.08-2.99,16.73-3.11c40.21,0.4501,80.43,0.64,120.65,0.34c24.43-0.25,48.87-0.0599,73.3-0.6499
	c27.14-0.25,54.29-0.24,81.42-0.8601c-1.69-1.09-3.47-2.0499-5.32-2.7899c-36.86-15.6801-73.29-32.9601-106.39-55.7101
	c-17.32-6.59-33.97-14.87-50.97-22.2599c-21.91-9.8601-44.1-19.1101-66.75-27.15c-39.8799-14.24-81.1-24.75-122.97-31.03
	C479.75,1590.3101,428.7,1590.04,378.03,1592.52z"/>
</svg>
