<?xml version="1.0" encoding="utf-8"?>
<!DOCTYPE svg PUBLIC "-//W3C//DTD SVG 1.1//EN" "http://www.w3.org/Graphics/SVG/1.1/DTD/svg11.dtd">
<svg version="1.1" id="Layer_1" xmlns="http://www.w3.org/2000/svg" xmlns:xlink="http://www.w3.org/1999/xlink" x="0px" y="0px"
	 viewBox="0 0 1840 1619.7443" enable-background="new 0 0 1840 1619.7443" xml:space="preserve">
<g>
	<path fill="none" d="M355.0895,917.1104c-26.3604-3.9943-52.8501-7.1313-79.2853-10.6388
		c-6.9265-0.9191-14.9625-5.9771-15.524,7.6788c-0.4358,10.5953-1.9999,18.8468,13.37,19.2096
		c22.5754,0.5328,45.0974,3.3276,67.6432,5.146c3.4702,0.2828,7.0588,0.0945,10.3895,0.9321
		c12.6454,3.1807,15.0473-5.7037,16.4587-14.4531C370.0331,913.26,359.8652,917.8339,355.0895,917.1104z"/>
	<path fill="none" d="M846.4075,633.8602c-54.6519-13.483-110.0696-19.4064-177.1274-19.163
		c-14.6404,0.7152-40.1315,2.7836-65.6303,2.8863c-14.4615,0.0583-16.2706,5.8431-13.9952,18.1667
		c5.88,31.8468,10.6406,63.8989,16.346,95.7799c2.1284,11.8937-0.8943,16.3453-13.8279,15.6008
		c-29.7354-1.7115-59.5087-2.9084-88.5504-9.9811c-14.4367-3.516-22.0126,0.189-22.0501,15.813
		c-0.011,4.6285,0.0537,9.4387-1.111,13.8504c-4.1202,15.6078,3.8374,19.6736,17.5706,21.5823
		c42.3085,5.88,83.7998,15.8925,125.4448,25.3569c38.8102,8.8202,69.7219,28.1743,95.2653,57.9829
		c28.0642,32.7502,36.0906,68.7,17.2813,108.24c-4.3262,9.0947-3.3558,10.3373,5.3813,11.6108
		c20.8586,3.04,41.8875,5.5794,62.353,10.414c13.635,3.2209,16.78-1.1447,18.0083-13.6804
		c11.1185-113.47,22.6776-226.897,34.3242-340.3144C856.9282,639.8435,855.5825,636.1237,846.4075,633.8602z"/>
	<path fill="none" d="M454.1231,733.2865c-5.3154-0.5259-4.7373,3.6467-4.9839,6.9141c-0.777,10.2926-1.4725,20.5912-2.4921,35.0311
		c-0.0463-0.5385-2.5255,4.7476,3.6511,5.2994c6.2092,0.5547,5.0422-4.9855,5.406-8.6158
		c1.03-10.2789,1.7857-20.5859,2.6027-30.8854C458.5803,737.5811,459.0533,733.7744,454.1231,733.2865z"/>
	<path fill="none" d="M1164.8572,323.0614c-7.9775,5.1929-15.9553,10.386-26.4224,17.1992
		C1168.5969,344.2512,1170.2839,342.9622,1164.8572,323.0614z"/>
	<path fill="none" d="M1111.6281,548.0322c35.6637-6.9437,35.6617-6.9467,39.8922-43.1668c0.2021-1.7297,0.3762-3.47,0.7146-5.1753
		c1.6722-8.4298-1.5664-11.6503-10.2162-10.8314c-14.4344,1.3666-28.9213,2.2441-43.4026,3.0156
		c-4.7177,0.2513-9.6918-0.4435-10.5453-6.5593c-0.803-5.7551,1.1348-8.7111,7.4373-11.2909
		c16.6249-6.8053,27.0143-20.1072,30.0101-37.8318c5.6444-33.3956-6.3007-62.5889-23.5602-90.1486
		c-1.391-2.2208-4.2573-4.1243-6.8239-4.9027c-15.1053-4.5813-29.1887-11.3807-42.5176-19.6412
		c-6.9059-4.2799-10.9127-2.6256-12.4822,4.6782c-2.9718,13.8297-12.5796,15.9229-24.7262,16.1736
		c-31.4037,0.6481-62.7639-0.1488-93.9105-3.8035c-15.8782-1.8632-12.3285,9.6515-14.4155,17.4767
		c-2.4014,9.0035,0.3658,13.094,10.7089,14.6608c21.7384,3.2928,43.1614,8.6602,64.7239,13.1267
		c7.8157,1.6189,13.4795,5.795,17.7708,12.6682c30.2994,48.5299,51.0242,100.9379,58.5906,157.5313
		c8.1188,60.7263-26.8805,113.6306-84.9396,133.7798c-6.6351,2.3027-11.3282,2.3089-15.975-4.2986
		c-15.6597-22.2682-40.8667-27.6633-64.7773-34.8871c-7.6918-2.3239-10.0662,2.3084-12.0482,9.8477
		c-4.6865,17.8263-4.797,36.1219-6.921,54.1225c-4.8162,40.8159-7.2954,81.9016-11.224,122.8296
		c-5.1429,53.5784-10.5375,107.1354-16.3754,160.6415c-1.1946,10.9481,3.3306,14.0196,13.0127,15.4534
		c23.3755,3.4614,46.6924,7.4256,69.9053,11.8558c44.1775,8.4312,47.4817,5.8077,56.8247-39.3267
		c11.3516-54.8394-11.6956-98.7577-59.4753-119.1981c-6.126-2.6207-14.1921-0.7036-20.307-10.308
		c12.109,2.2711,21.6783-2.7263,32.0568-3.2498c56.2411-2.837,112.4359-7.1486,168.7878-6.2732
		c13.1333,0.2041,13.1449-7.6838,14.4275-16.5239c1.5482-10.67-4.21-12.0679-12.9834-12.6797
		c-38.3179-2.6718-76.5928-5.9598-115.2542-9.054c0.9653-6.5475,6.1948-10.4863,11.1675-11.6556
		c16.3184-3.8372,27.4824-14.8901,38.142-26.1378c39.5443-41.7267,63.9247-92.0163,77.3715-147.1999
		c5.4119-22.2102,7.2588-45.7832-15.8044-63.355C1095.3108,551.4034,1105.5688,549.212,1111.6281,548.0322z"/>
	<path d="M817.1398,508.9093c14.0089,1.8677,30.6693-2.7854,32.4703-16.2939c1.0339-7.7549-20.4297-16.7271-23.9319-17.1938
		c-9.2559-1.2341-13.792,2.2349-14.8926,10.49C808.9178,499.9203,811.136,508.1087,817.1398,508.9093z"/>
	<polygon points="846.6252,532.1902 853.3794,529.2717 859.1331,533.8578 864.6365,530.7725 856.0476,509.2591 842.1223,527.7708 	
		"/>
	<path d="M893.688,519.1149c6.0039,0.8004,10.2898-6.5209,12.1575-20.5296c1.1006-8.2552-2.3682-12.7914-11.624-14.0254
		c-3.5022-0.467-26.5667,2.5685-27.6006,10.3234v0.0001C864.8198,508.3918,879.6792,517.2471,893.688,519.1149z"/>
	<path d="M1819.7261,844.6473c-6.1375-8.4548-10.6709-10.4979-18.9934-2.9891c-5.8108,5.2429-11.7048,10.8715-21.0908,10.6075
		c-27.5464-0.7748-51.5823-8.0967-67.1741-32.91c-6.5208-10.3773-15.5669-17.1574-27.645-19.4325
		c-24.7521-4.6622-64.7297,18.9882-73.8749,44.061c14.3158-2.822,28.3156-7.851,41.5972,3.0563
		c20.6674,16.9728,42.5487,32.3181,66.6715,44.1005c8.301,4.0544,6.7563,7.4349,0.5515,11.9636
		c-11.2532,8.2133-22.5342,16.4238-33.3229,25.2249c-6.4197,5.2371-9.5406,4.1652-14.9799-2.1948
		c-29.7184-34.7483-54.749-74.0004-95.8517-97.9629c-9.4962-5.5361-12.3575-6.921-19.8575,3.0751
		c-55.7839,74.3516-119.3434,140.7719-200.0831,188.7839c-7.0249,4.1775-14.5189,7.5662-23.1078,11.9988
		c10.2407-59.4086,8.281-96.0904-5.3518-145.3807c-3.9608-14.3201-10.8143-20.9745-25.8356-25.3978
		c-44.6398-13.1447-90.3417-11.9727-135.8369-14.6509c-8.0604-0.4745-17.5914,1.9105-16.5988-13.0223
		c0.9014-13.5616,7.1327-14.3862,17.8157-13.4636c46.2742,3.9968,92.6472,6.944,138.8519,11.588
		c12.2628,1.2325,17.5082-2.7314,22.442-13.0424c16.0493-33.5408,30.467-67.6874,40.027-103.6384
		c8.3734-31.489,14.7252-63.3787,8.5686-96.2242c-5.3536-28.5613-17.2318-49.7598-49.2582-57.6108
		c-45.219-11.0852-90.4163-19.7173-137.0605-20.1952c-5.1758-0.053-12.946,4.0963-13.8365-7.3868
		c-3.4247-44.167,3.6414-51.6582,47.2098-48.3315c7.0649,0.5393,13.9055,1.8263,20.1099,5.0854
		c13.4012,7.0398,20.6223,0.8906,25.5646-11.1655c12.3987-30.2461,12.0349-61.0028,4.0247-92.1475
		c-4.9283-19.162-15.6298-31.8225-36.3258-34.6898c-10.3101-1.4283-20.3511-5.2874-30.6641-6.0702
		c-10.3784-0.788-12.428-5.3916-11.4661-14.5679c2.6023-24.8273,4.9053-49.6937,6.7358-74.588
		c0.3918-5.3309,4.6187-14.4135-6.2813-14.4069c-7.1487,0.0042-15.7517-4.0686-20.4065,7.4402
		c-8.0592,19.9265-47.0667,33.3101-63.9327,21.0808c-7.9835-5.7886-16.7698-10.4271-24.65-10.3271
		c-29.8782,0.3794-32.3108-19.0629-32.9233-40.9641c-0.0486-1.7329-0.2031-3.4625-0.2849-5.1948
		c-0.6832-14.4639-6.6506-24.8958-21.5818-28.7014c-29.2449-7.4536-58.6559-14.4114-88.6084-17.9636
		c-14.3337-1.6998-18.0791-7.1873-16.5348-21.1443c4.469-40.3865,7.6115-80.9194,11.3737-121.3855
		c0.5916-6.363,0.5179-11.2717-8.0697-11.8645c-7.7172-0.5327-10.5753,2.308-10.4622,9.6953
		c0.0919,6.0063-1.3431,10.7883-7.9476,13.8451c-25.4376,11.7733-50.6608,22.5428-80.0151,19.3263
		c-26.9956-2.9583-53.3938,1.1459-77.5911,14.4174c-11.5125,6.3141-21.5813,14.3315-24.9987,32.1266
		c19.1232-13.933,36.0692-12.9716,53.6815-5.1842c41.1252,18.1837,82.7671,21.2709,124.902,3.1472
		c0.5948-0.256,1.8168,0.9459,3.5946,1.9437c-1.5637,15.1414-3.8098,30.6415-4.542,46.2126
		c-0.4762,10.1257-3.8905,12.9155-13.8086,11.0056c-13.7579-2.6493-27.7781-3.9369-43.7075-6.0793
		c27.6991,59.9729,50.0066,117.0899-9.5358,169.5711c2.7704,1.3765,4.5911,2.8271,6.6075,3.1904
		c9.667,1.7405,19.3733,3.2798,29.0933,4.7018c5.6433,0.8257,11.9276,0.0182,13.165,8.1825
		c2.4135,15.9224-5.9213,24.8738-22.0959,23.3201c-4.6206-0.4438-9.2122-1.1831-13.8286-1.6781
		c-53.6829-5.756-107.3157-12.5392-161.5024-9.3151c-6.421,0.3821-13.8253-0.5601-18.5018,6.6976
		c31.6073,29.3226,34.5836,61.7938,17.6842,99.9294c-15.2762,34.4725-40.5265,60.3016-65.4771,86.7303
		c-12.864,13.6259-24.3745,29.0613-42.6794,39.5833c1.7271-16.7263-5.2181-19.5381-19.2813-17.6909
		c-15.9943,2.1008-32.4603,0.3806-48.703,0.8984c-11.2083,0.3575-15.0634-3.1404-13.6782-15.2803
		c4.4557-39.0494,7.3844-78.2705,11.3802-117.3766c1.0453-10.2308,0.086-16.011-12.585-16.8131
		c-12.4666-0.7893-14.4972,4.5835-15.1306,14.9131c-0.5766,9.4053,3.5292,21.5251-6.376,27.4366
		c-18.1911,10.8566-37.3795,18.2604-59.355,8.7335c-33.231-14.4063-78.6915-2.7697-101.0776,25.1841
		c-3.7868,4.7285-8.6927,9.4237-6.436,18.5191c20.6854-14.7105,40.3731-6.3714,61.0213-0.0438
		c13.1632,4.0337,24.0088,12.9307,39.5921,12.9104c22.0157-0.0288,43.2725-2.762,64.6022-8.1406
		c1.9944,11.2128-2.3259,20.9274-1.5771,30.5649c1.2927,16.6383-7.1179,16.71-20.0399,15.6899
		c-19.0201-1.5015-37.0366-9.0315-55.9173-9.1758c-17.6052-0.1345-34.5327-3.1721-51.7093-5.9617
		c-10.9861-1.7842-21.026-8.843-34.2838-6.6561c2.4425,4.0558,4.1651,6.9762,5.9446,9.8617
		c16.1624,26.2058,30.8033,53.0606,36.9471,83.7134c1.6688,8.3259,2.0847,13.3635-9.6505,10.5433
		c-16.8898-4.059-34.1872-6.4928-51.3751-9.2128c-9.9119-1.5686-14.5184-4.7273-13.4027-16.7493
		c3.7009-39.8795,5.6918-79.9166,8.4327-119.8869c0.5878-8.5714,1.3159-15.3993-11.3497-16.2428
		c-12.2249-0.814-14.2253,4.4539-15.4628,14.4514c-3.1083,25.1115-19.1423,37.6911-42.7567,35.0466
		c-7.8813-0.8826-14.4567-4.3939-20.3024-9.229c-16.2219-13.4172-33.5688-14.7353-51.8316-5.0698
		c-21.6021,11.433-35.3797,29.1104-42.1519,53.8855c20.8464-16.6113,41.3724-11.144,60.1144-0.714
		c18.994,10.5702,38.7344,8.6521,58.7601,9.8612c9.9965,0.6035,23.8419-7.7014,28.5972,0.7543
		c4.5202,8.0377-0.8058,21.337-0.9175,32.3317c-0.1151,11.3275-5.217,13.1746-15.3856,11.2354
		c-34.7583-6.6282-69.4893-13.7841-104.5391-18.3922c-35.1729-4.6243-69.0243-18.4937-107.7294-15.3875
		c13.6942,23.8895,25.2766,45.91,32.4531,69.8873c18.7315,62.5839,14.3851,120.9845-33.9848,169.6846
		c-12.5598,12.6455-7.2635,14.7643,5.2675,19.2189c59.8549,21.277,121.929,33.122,184.2573,43.6965
		c11.1974,1.8996,15.0134,5.3441,13.186,16.4785c-1.6323,9.9457-0.9462,18.9501-16.3799,17.8991
		c-24.2578-1.6521-48.7797-1.6561-72.7962,3.8867c-6.7152,1.55-14.4451,2.6567-15.2188,11.6315
		c-2.2844,26.498-5.662,53.0048-6.0417,79.5449c-1.2448,87.0034,10.8143,172.447,33.318,256.4253
		c12.6578,47.236,28.077,93.3718,57.2845,133.521c14.1447,19.4432,31.8502,33.0369,56.5219,37.2615
		c21.1137,3.6154,41.8786,9.2922,62.7707,14.1733c201.6042,47.1017,402.4755,97.7322,607.517,128.486
		c58.5903,8.788,117.5624,17.2349,176.5579,3.447c175.8828-41.1056,321.7195-131.6711,432.1653-274.1733
		c27.2236-35.1255,52.8389-52.3082,95.241-44.1071c24.3656,4.713,41.1682-7.076,55.2908-24.7998
		c5.0535-6.342,9.415-13.2327,14.4116-19.6237c6.5269-8.3479,4.9978-13.7369-4.3726-19.0668
		c-22.8064-12.9723-46.895-22.8264-71.4929-31.6267c-14.9292-5.3414-29.8833-10.6127-48.8723-17.3513
		c26.624-7.978,47.9333-16.676,67.5657-29.0459c66.7063-42.0298,83.3965-97.2251,49.748-168.3882
		c-5.3003-11.21-2.4731-15.6863,6.3328-22.1631c37.8862-27.8663,74.9585-56.8414,112.9133-84.6119
		C1827.3074,856.9401,1825.5293,852.6414,1819.7261,844.6473z M368.1416,924.985c-1.4114,8.7495-3.8134,17.6338-16.4587,14.4531
		c-3.3307-0.8376-6.9193-0.6494-10.3895-0.9321c-22.5458-1.8184-45.0679-4.6132-67.6432-5.146
		c-15.3699-0.3628-13.8058-8.6143-13.37-19.2096c0.5616-13.6559,8.5976-8.598,15.524-7.6788
		c26.4352,3.5075,52.9249,6.6445,79.2853,10.6388C359.8652,917.8339,370.0331,913.26,368.1416,924.985z M458.3068,741.0298
		c-0.817,10.2995-1.5726,20.6065-2.6027,30.8854c-0.3638,3.6303,0.8032,9.1705-5.406,8.6158
		c-6.1766-0.5518-3.6973-5.8379-3.6511-5.2994c1.0197-14.4399,1.7151-24.7385,2.4921-35.0311
		c0.2466-3.2673-0.3314-7.4399,4.9839-6.9141C459.0533,733.7744,458.5803,737.5811,458.3068,741.0298z M1164.8572,323.0614
		c5.4268,19.9009,3.7397,21.1898-26.4224,17.1992C1148.9019,333.4474,1156.8796,328.2542,1164.8572,323.0614z M799.5952,480.0913
		l0.4832-47.5465c3.0017-22.5143,43.3602-38.7749,70.8776-35.1062s62.2061,29.9349,59.2045,52.4492l-11.9905,46.0123l6.6543,13.1082
		l-25.766,27.1173l-14.0922,0.6672l-3.4354,10.49l-20.1626,8.0051l-22.5142-3.0016l-17.3611-13.0081l-0.5671-11.0236
		l-13.4252-4.3359l-17.7615-32.9205L799.5952,480.0913z M961.8478,536.8587c-25.0157-3.3352-31.2697-4.1689-54.9513,1.585
		l23.6814-24.8492c10.3899-3.4522,14.2422-7.5216,19.0618-22.6644c9.0056,1.2007,15.9768,6.2037,15.3765,10.7065
		c-1.1674,8.7556-6.3706,5.7704-7.738,16.0268C956.1107,526.419,963.4153,525.1014,961.8478,536.8587z M883.1318,565.8277
		l5.1698-12.0409c12.2578,9.2723,26.3,14.709,37.0568,16.1432c5.0032,0.667,8.9391,5.52,8.1052,11.7739
		c-22.1472,1.8848-17.4774,20.3297-27.2336,19.0289c-11.5072-1.5342-7.8384-17.5944-30.803-30.5856l0,0L883.1318,565.8277z
		 M871.7246,563.543l1.134-8.5054l8.0717-3.2521l-3.7023,8.6722L871.7246,563.543z M870.157,556.2051l-1.1007,8.2551l-8.0383,3.002
		l1.1339-8.5052L870.157,556.2051z M859.6169,558.8736l-1.1672,8.7555l-8.7556-1.1674l1.1674-8.7554L859.6169,558.8736z
		 M848.3599,557.3727l-1.1672,8.7555l-8.7556-1.1672l1.1674-8.7556L848.3599,557.3727z M837.1362,555.6218l-1.134,8.5054
		l-6.9712-5.0031l1.1007-8.2552L837.1362,555.6218z M820.8925,543.7811l6.9377,5.2533l-1.1339,8.5054l-4.5029-4.4194
		L820.8925,543.7811z M821.3931,562.9432c-25.5662,6.521-26.233,22.9814-37.7402,21.4473
		c-9.7562-1.3008-0.4172-17.8779-21.2971-25.4993c0.8339-6.2539,5.9037-9.9063,10.9069-9.2393
		c10.7567,1.4341,25.7328-0.1337,39.9918-5.8707l1.8345,12.9747L821.3931,562.9432z M756.1512,490.8485
		c1.3674-10.2565-4.4362-8.7388-3.2689-17.4944c0.6003-4.5027,8.6387-7.5048,17.6444-6.3041
		c0.684,15.8766,3.3356,20.8131,12.4581,26.8668l16.3439,30.1855c-21.3468-11.7573-27.6008-12.591-52.6166-15.9262
		C748.2797,496.4188,754.9839,499.604,756.1512,490.8485z M803.7576,1002c-20.4656-4.8346-41.4944-7.374-62.353-10.414
		c-8.7372-1.2735-9.7075-2.5161-5.3813-11.6108c18.8093-39.54,10.783-75.4897-17.2813-108.24
		c-25.5435-29.8087-56.4551-49.1627-95.2653-57.9829c-41.645-9.4644-83.1362-19.4769-125.4448-25.3569
		c-13.7332-1.9086-21.6909-5.9744-17.5706-21.5823c1.1647-4.4117,1.0999-9.2219,1.111-13.8504
		c0.0375-15.624,7.6134-19.329,22.0501-15.813c29.0416,7.0728,58.815,8.2696,88.5504,9.9811
		c12.9336,0.7444,15.9563-3.7071,13.8279-15.6008c-5.7054-31.881-10.466-63.9331-16.346-95.7799
		c-2.2754-12.3236-0.4663-18.1083,13.9952-18.1667c25.4988-0.1027,50.9899-2.1711,65.6303-2.8863
		c67.0579-0.2433,122.4756,5.68,177.1274,19.163c9.175,2.2635,10.5208,5.9833,9.6826,14.145
		c-11.6466,113.4174-23.2057,226.8444-34.3242,340.3144C820.5376,1000.8553,817.3926,1005.2209,803.7576,1002z M1104.4871,558.3947
		c23.0632,17.5718,21.2163,41.1448,15.8044,63.355c-13.4468,55.1836-37.8271,105.4731-77.3715,147.1999
		c-10.6595,11.2477-21.8236,22.3006-38.142,26.1378c-4.9727,1.1693-10.2021,5.1081-11.1675,11.6556
		c38.6614,3.0941,76.9363,6.3821,115.2542,9.054c8.7734,0.6118,14.5316,2.0096,12.9834,12.6797
		c-1.2826,8.8401-1.2942,16.728-14.4275,16.5239c-56.3519-0.8754-112.5468,3.4362-168.7878,6.2732
		c-10.3784,0.5235-19.9478,5.5209-32.0568,3.2498c6.1149,9.6044,14.181,7.6873,20.307,10.308
		c47.7798,20.4404,70.8269,64.3587,59.4753,119.1981c-9.343,45.1343-12.6472,47.7579-56.8247,39.3267
		c-23.2129-4.4302-46.5298-8.3943-69.9053-11.8558c-9.6821-1.4338-14.2073-4.5054-13.0127-15.4534
		c5.8379-53.5061,11.2324-107.0632,16.3754-160.6415c3.9286-40.928,6.4078-82.0137,11.224-122.8296
		c2.124-18.0006,2.2345-36.2962,6.921-54.1225c1.9821-7.5392,4.3564-12.1715,12.0482-9.8477
		c23.9106,7.2238,49.1177,12.6189,64.7773,34.8871c4.6467,6.6075,9.3398,6.6014,15.975,4.2986
		c58.0591-20.1493,93.0583-73.0535,84.9396-133.7798c-7.5664-56.5935-28.2911-109.0014-58.5906-157.5313
		c-4.2913-6.8732-9.9551-11.0493-17.7708-12.6682c-21.5625-4.4666-42.9855-9.8339-64.7239-13.1267
		c-10.343-1.5668-13.1102-5.6572-10.7089-14.6608c2.087-7.8252-1.4626-19.3398,14.4155-17.4767
		c31.1466,3.6547,62.5068,4.4515,93.9105,3.8035c12.1466-0.2507,21.7544-2.3439,24.7262-16.1736
		c1.5695-7.3038,5.5763-8.9581,12.4822-4.6782c13.3289,8.2605,27.4122,15.0599,42.5176,19.6412
		c2.5665,0.7784,5.4329,2.6819,6.8239,4.9027c17.2595,27.5597,29.2046,56.7529,23.5602,90.1486
		c-2.9958,17.7246-13.3853,31.0265-30.0101,37.8318c-6.3025,2.5798-8.2402,5.5358-7.4373,11.2909
		c0.8535,6.1158,5.8276,6.8107,10.5453,6.5593c14.4813-0.7715,28.9681-1.649,43.4026-3.0156
		c8.6498-0.8188,11.8884,2.4016,10.2162,10.8314c-0.3384,1.7053-0.5125,3.4456-0.7146,5.1753
		c-4.2305,36.2202-4.2285,36.2231-39.8922,43.1668C1105.5688,549.212,1095.3108,551.4034,1104.4871,558.3947z"/>
	<path fill="#FFFFFF" d="M820.9257,528.2547l0.5671,11.0236l17.3611,13.0081l22.5142,3.0016l20.1626-8.0051l3.4354-10.49
		l14.0922-0.6672l25.766-27.1173l-6.6543-13.1082l11.9905-46.0123c3.0016-22.5143-31.6871-48.7805-59.2045-52.4492
		s-67.8759,12.5919-70.8776,35.1062l-0.4832,47.5465l-9.8562,10.907l17.7615,32.9205L820.9257,528.2547z M866.6208,494.8834v-0.0001
		c1.0339-7.7549,24.0984-10.7904,27.6006-10.3234c9.2559,1.234,12.7246,5.7701,11.624,14.0254
		c-1.8677,14.0088-6.1536,21.33-12.1575,20.5296C879.6792,517.2471,864.8198,508.3918,866.6208,494.8834z M864.6365,530.7725
		l-5.5034,3.0853l-5.7537-4.5862l-6.7542,2.9186l-4.5029-4.4194l13.9253-18.5117L864.6365,530.7725z M810.7856,485.9115
		c1.1006-8.2551,5.6367-11.7241,14.8926-10.49c3.5022,0.4668,24.9658,9.439,23.9319,17.1938
		c-1.801,13.5085-18.4614,18.1616-32.4703,16.2939C811.136,508.1087,808.9178,499.9203,810.7856,485.9115z"/>
	<path fill="#FFFFFF" d="M965.0161,501.6366c0.6003-4.5028-6.3708-9.5059-15.3765-10.7065
		c-4.8196,15.1428-8.6719,19.2122-19.0618,22.6644l-23.6814,24.8492c23.6816-5.7539,29.9355-4.9202,54.9513-1.585
		c1.5675-11.7573-5.7371-10.4397-4.5697-19.1953C958.6455,507.407,963.8488,510.3922,965.0161,501.6366z"/>
	<polygon fill="#FFFFFF" points="869.0563,564.4603 870.157,556.2051 862.1519,558.957 861.0179,567.4622 	"/>
	<path fill="#FFFFFF" d="M906.23,600.7328c9.7562,1.3007,5.0864-17.1442,27.2336-19.0289
		c0.8339-6.2539-3.1021-11.1069-8.1052-11.7739c-10.7567-1.4342-24.799-6.8708-37.0568-16.1432l-5.1698,12.0409l-7.7048,4.3196l0,0
		C898.3916,583.1385,894.7228,599.1986,906.23,600.7328z"/>
	<path fill="#FFFFFF" d="M813.2544,543.7812c-14.259,5.7371-29.2351,7.3048-39.9918,5.8707
		c-5.0032-0.667-10.073,2.9854-10.9069,9.2393c20.8799,7.6213,11.5409,24.1985,21.2971,25.4993
		c11.5072,1.5341,12.1741-14.9263,37.7402-21.4473l-6.3042-6.1873L813.2544,543.7812z"/>
	<polygon fill="#FFFFFF" points="826.6963,557.5397 827.8302,549.0344 820.8925,543.7811 822.1934,553.1203 	"/>
	<path fill="#FFFFFF" d="M782.9849,493.9168c-9.1226-6.0537-11.7742-10.9902-12.4581-26.8668
		c-9.0057-1.2007-17.0441,1.8014-17.6444,6.3041c-1.1672,8.7556,4.6364,7.2379,3.2689,17.4944
		c-1.1674,8.7555-7.8716,5.5703-9.4391,17.3276c25.0157,3.3352,31.2698,4.1689,52.6166,15.9262L782.9849,493.9168z"/>
	<polygon fill="#FFFFFF" points="836.0022,564.1271 837.1362,555.6218 830.1317,550.8688 829.031,559.1241 	"/>
	
		<rect x="838.9819" y="556.7503" transform="matrix(-0.1321 0.9912 -0.9912 -0.1321 1511.0953 -200.6796)" fill="#FFFFFF" width="8.833" height="8.833"/>
	<polygon fill="#FFFFFF" points="872.8586,555.0377 871.7246,563.543 877.228,560.4578 880.9303,551.7856 	"/>
	
		<rect x="850.239" y="558.2513" transform="matrix(-0.1321 0.9912 -0.9912 -0.1321 1525.3279 -210.1386)" fill="#FFFFFF" width="8.833" height="8.833"/>
</g>
</svg>
